<svg width="240" height="40" viewBox="0 0 240 40" fill="none" xmlns="http://www.w3.org/2000/svg">
<path d="M25.9375 13.75H14.0625C12.8544 13.75 11.875 14.7294 11.875 15.9375V24.0625C11.875 25.2706 12.8544 26.25 14.0625 26.25H25.9375C27.1456 26.25 28.125 25.2706 28.125 24.0625V15.9375C28.125 14.7294 27.1456 13.75 25.9375 13.75Z" stroke="#F3F3F3" stroke-width="1.5" stroke-linecap="round" stroke-linejoin="round"/>
<path d="M11.875 17.5H28.125M15 21.7188H16.875V22.5H15V21.7188Z" stroke="#F3F3F3" stroke-width="1.40625" stroke-linejoin="round"/>
<path d="M34.845 14.913H39.018C39.824 14.913 40.448 15.121 40.89 15.537C41.332 15.953 41.553 16.5597 41.553 17.357C41.553 17.8077 41.4447 18.2063 41.228 18.553C41.02 18.891 40.7427 19.1423 40.396 19.307C41.3667 19.593 41.852 20.2993 41.852 21.426C41.852 21.9547 41.735 22.414 41.501 22.804C41.2757 23.1853 40.9637 23.48 40.565 23.688C40.1663 23.896 39.7243 24 39.239 24H34.845V14.913ZM38.849 18.813C39.2737 18.813 39.6073 18.696 39.85 18.462C40.0927 18.228 40.214 17.8813 40.214 17.422C40.214 16.8933 40.0927 16.525 39.85 16.317C39.616 16.1003 39.252 15.992 38.758 15.992H36.171V18.813H38.849ZM38.94 22.921C39.4513 22.921 39.8413 22.8083 40.11 22.583C40.3787 22.3577 40.513 21.972 40.513 21.426C40.513 20.88 40.37 20.49 40.084 20.256C39.8067 20.022 39.3863 19.905 38.823 19.905H36.171V22.921H38.94ZM44.0544 16.538C43.8377 16.538 43.6557 16.4643 43.5084 16.317C43.361 16.1697 43.2874 15.9877 43.2874 15.771C43.2874 15.5543 43.361 15.3723 43.5084 15.225C43.6557 15.0777 43.8377 15.004 44.0544 15.004C44.2797 15.004 44.466 15.0777 44.6134 15.225C44.7694 15.3723 44.8474 15.5543 44.8474 15.771C44.8474 15.9877 44.7694 16.1697 44.6134 16.317C44.466 16.4643 44.2797 16.538 44.0544 16.538ZM43.3914 17.76H44.7304V24H43.3914V17.76ZM46.5374 14.393H47.8504V24H46.5374V14.393ZM49.5462 14.393H50.8592V24H49.5462V14.393ZM53.322 16.538C53.1053 16.538 52.9233 16.4643 52.776 16.317C52.6286 16.1697 52.555 15.9877 52.555 15.771C52.555 15.5543 52.6286 15.3723 52.776 15.225C52.9233 15.0777 53.1053 15.004 53.322 15.004C53.5473 15.004 53.7336 15.0777 53.881 15.225C54.037 15.3723 54.115 15.5543 54.115 15.771C54.115 15.9877 54.037 16.1697 53.881 16.317C53.7336 16.4643 53.5473 16.538 53.322 16.538ZM52.659 17.76H53.998V24H52.659V17.76ZM55.805 17.76H57.079V18.657C57.3736 18.2843 57.7333 18.0113 58.158 17.838C58.5913 17.656 59.042 17.565 59.51 17.565C60.342 17.565 60.9616 17.786 61.369 18.228C61.7763 18.67 61.98 19.2637 61.98 20.009V24H60.667V20.139C60.667 19.125 60.1816 18.618 59.211 18.618C58.795 18.618 58.405 18.7177 58.041 18.917C57.6856 19.1077 57.378 19.4023 57.118 19.801V24H55.805V17.76ZM66.8629 26.99C66.4382 26.99 66.0222 26.9553 65.6149 26.886C65.2162 26.8167 64.8782 26.717 64.6009 26.587V25.508C65.2509 25.8027 66.0049 25.95 66.8629 25.95C67.6689 25.95 68.2539 25.7723 68.6179 25.417C68.9905 25.0703 69.1769 24.5417 69.1769 23.831V23.168C68.6049 23.8527 67.7642 24.195 66.6549 24.195C66.0222 24.195 65.4545 24.0563 64.9519 23.779C64.4492 23.5017 64.0549 23.1117 63.7689 22.609C63.4829 22.1063 63.3399 21.53 63.3399 20.88C63.3399 20.2213 63.4785 19.645 63.7559 19.151C64.0419 18.6483 64.4319 18.2583 64.9259 17.981C65.4285 17.7037 65.9919 17.565 66.6159 17.565C67.1965 17.565 67.6862 17.6517 68.0849 17.825C68.4922 17.9897 68.8692 18.267 69.2159 18.657V17.76H70.4899V23.688C70.4899 24.754 70.1909 25.5687 69.5929 26.132C69.0035 26.704 68.0935 26.99 66.8629 26.99ZM66.9149 23.155C67.4522 23.155 67.9245 23.012 68.3319 22.726C68.7479 22.44 69.0295 22.0587 69.1769 21.582V20.178C69.0122 19.6927 68.7262 19.3113 68.3189 19.034C67.9202 18.7567 67.4522 18.618 66.9149 18.618C66.4902 18.618 66.1045 18.7133 65.7579 18.904C65.4199 19.086 65.1512 19.3503 64.9519 19.697C64.7612 20.0437 64.6659 20.438 64.6659 20.88C64.6659 21.3307 64.7612 21.7293 64.9519 22.076C65.1512 22.414 65.4199 22.6783 65.7579 22.869C66.1045 23.0597 66.4902 23.155 66.9149 23.155ZM74.4829 24.195C74.0496 24.195 73.5902 24.1387 73.1049 24.026C72.6196 23.922 72.2382 23.779 71.9609 23.597V22.479C72.2989 22.6783 72.6889 22.843 73.1309 22.973C73.5729 23.0943 74.0019 23.155 74.4179 23.155C74.8859 23.155 75.2282 23.0987 75.4449 22.986C75.6616 22.8733 75.7699 22.6913 75.7699 22.44C75.7699 22.2493 75.7179 22.0977 75.6139 21.985C75.5186 21.8637 75.3496 21.7553 75.1069 21.66C74.8729 21.5647 74.5176 21.452 74.0409 21.322C73.5296 21.1747 73.1222 21.0273 72.8189 20.88C72.5242 20.724 72.2989 20.529 72.1429 20.295C71.9956 20.061 71.9219 19.7577 71.9219 19.385C71.9219 18.787 72.1559 18.3363 72.6239 18.033C73.1006 17.721 73.7376 17.565 74.5349 17.565C74.9509 17.565 75.3582 17.604 75.7569 17.682C76.1556 17.76 76.4762 17.8683 76.7189 18.007V19.099C76.4676 18.9517 76.1556 18.8347 75.7829 18.748C75.4189 18.6613 75.0462 18.618 74.6649 18.618C74.2056 18.618 73.8546 18.6743 73.6119 18.787C73.3692 18.8997 73.2479 19.099 73.2479 19.385C73.2479 19.567 73.2999 19.7143 73.4039 19.827C73.5079 19.9397 73.6726 20.0393 73.8979 20.126C74.1319 20.204 74.5002 20.308 75.0029 20.438C75.7916 20.6547 76.3376 20.9103 76.6409 21.205C76.9529 21.4997 77.1089 21.907 77.1089 22.427C77.1089 22.9643 76.8879 23.3933 76.4459 23.714C76.0039 24.0347 75.3496 24.195 74.4829 24.195ZM85.5898 24.195C84.8358 24.195 84.2291 24.0043 83.7698 23.623C83.3191 23.233 83.0938 22.7087 83.0938 22.05C83.0938 21.3567 83.3105 20.8237 83.7438 20.451C84.1858 20.0697 84.8098 19.879 85.6158 19.879C86.4738 19.879 87.2018 20.0523 87.7998 20.399V20.074C87.7998 19.58 87.6481 19.216 87.3448 18.982C87.0501 18.7393 86.5821 18.618 85.9408 18.618C85.5595 18.618 85.1868 18.657 84.8228 18.735C84.4675 18.8043 84.1468 18.904 83.8608 19.034V17.968C84.1208 17.8467 84.4588 17.7513 84.8748 17.682C85.2908 17.604 85.6938 17.565 86.0838 17.565C87.1151 17.565 87.8778 17.7947 88.3718 18.254C88.8745 18.7047 89.1258 19.333 89.1258 20.139V24H87.8908V23.298C87.6221 23.5927 87.3015 23.818 86.9288 23.974C86.5648 24.1213 86.1185 24.195 85.5898 24.195ZM85.9148 23.194C86.3308 23.194 86.7078 23.1117 87.0458 22.947C87.3838 22.7823 87.6351 22.5527 87.7998 22.258V21.413C87.2365 21.049 86.6081 20.867 85.9148 20.867C85.4121 20.867 85.0351 20.9667 84.7838 21.166C84.5411 21.3567 84.4198 21.6513 84.4198 22.05C84.4198 22.8127 84.9181 23.194 85.9148 23.194ZM90.7552 17.76H92.0292V18.657C92.3238 18.2843 92.6835 18.0113 93.1082 17.838C93.5415 17.656 93.9922 17.565 94.4602 17.565C95.2922 17.565 95.9118 17.786 96.3192 18.228C96.7265 18.67 96.9302 19.2637 96.9302 20.009V24H95.6172V20.139C95.6172 19.125 95.1318 18.618 94.1612 18.618C93.7452 18.618 93.3552 18.7177 92.9912 18.917C92.6358 19.1077 92.3282 19.4023 92.0682 19.801V24H90.7552V17.76ZM101.566 24.195C100.942 24.195 100.379 24.0607 99.8761 23.792C99.3821 23.5147 98.9921 23.129 98.7061 22.635C98.4287 22.1323 98.2901 21.5517 98.2901 20.893C98.2901 20.243 98.4287 19.6667 98.7061 19.164C98.9921 18.6613 99.3821 18.2713 99.8761 17.994C100.379 17.708 100.942 17.565 101.566 17.565C102.693 17.565 103.546 17.9073 104.127 18.592V14.393H105.44V24H104.166V23.09C103.819 23.4713 103.438 23.753 103.022 23.935C102.615 24.1083 102.129 24.195 101.566 24.195ZM101.865 23.155C102.402 23.155 102.87 23.0163 103.269 22.739C103.676 22.453 103.962 22.0717 104.127 21.595V20.191C103.98 19.7143 103.698 19.333 103.282 19.047C102.875 18.761 102.402 18.618 101.865 18.618C101.44 18.618 101.055 18.7133 100.708 18.904C100.37 19.0947 100.101 19.3633 99.9021 19.71C99.7114 20.0567 99.6161 20.451 99.6161 20.893C99.6161 21.335 99.7114 21.7293 99.9021 22.076C100.101 22.4227 100.37 22.6913 100.708 22.882C101.055 23.064 101.44 23.155 101.865 23.155ZM111.944 14.913H115.441C116.42 14.913 117.191 15.16 117.755 15.654C118.327 16.1393 118.613 16.8327 118.613 17.734C118.613 18.6527 118.331 19.3503 117.768 19.827C117.204 20.295 116.429 20.529 115.441 20.529H113.27V24H111.944V14.913ZM115.298 19.424C115.904 19.424 116.385 19.2983 116.741 19.047C117.096 18.7957 117.274 18.358 117.274 17.734C117.274 17.11 117.096 16.6723 116.741 16.421C116.385 16.161 115.904 16.031 115.298 16.031H113.27V19.424H115.298ZM119.777 14.393H121.09V24H119.777V14.393ZM125.021 24.195C124.267 24.195 123.661 24.0043 123.201 23.623C122.751 23.233 122.525 22.7087 122.525 22.05C122.525 21.3567 122.742 20.8237 123.175 20.451C123.617 20.0697 124.241 19.879 125.047 19.879C125.905 19.879 126.633 20.0523 127.231 20.399V20.074C127.231 19.58 127.08 19.216 126.776 18.982C126.482 18.7393 126.014 18.618 125.372 18.618C124.991 18.618 124.618 18.657 124.254 18.735C123.899 18.8043 123.578 18.904 123.292 19.034V17.968C123.552 17.8467 123.89 17.7513 124.306 17.682C124.722 17.604 125.125 17.565 125.515 17.565C126.547 17.565 127.309 17.7947 127.803 18.254C128.306 18.7047 128.557 19.333 128.557 20.139V24H127.322V23.298C127.054 23.5927 126.733 23.818 126.36 23.974C125.996 24.1213 125.55 24.195 125.021 24.195ZM125.346 23.194C125.762 23.194 126.139 23.1117 126.477 22.947C126.815 22.7823 127.067 22.5527 127.231 22.258V21.413C126.668 21.049 126.04 20.867 125.346 20.867C124.844 20.867 124.467 20.9667 124.215 21.166C123.973 21.3567 123.851 21.6513 123.851 22.05C123.851 22.8127 124.35 23.194 125.346 23.194ZM130.187 17.76H131.461V18.657C131.755 18.2843 132.115 18.0113 132.54 17.838C132.973 17.656 133.424 17.565 133.892 17.565C134.724 17.565 135.343 17.786 135.751 18.228C136.158 18.67 136.362 19.2637 136.362 20.009V24H135.049V20.139C135.049 19.125 134.563 18.618 133.593 18.618C133.177 18.618 132.787 18.7177 132.423 18.917C132.067 19.1077 131.76 19.4023 131.5 19.801V24H130.187V17.76ZM140.283 24.195C139.849 24.195 139.39 24.1387 138.905 24.026C138.419 23.922 138.038 23.779 137.761 23.597V22.479C138.099 22.6783 138.489 22.843 138.931 22.973C139.373 23.0943 139.802 23.155 140.218 23.155C140.686 23.155 141.028 23.0987 141.245 22.986C141.461 22.8733 141.57 22.6913 141.57 22.44C141.57 22.2493 141.518 22.0977 141.414 21.985C141.318 21.8637 141.149 21.7553 140.907 21.66C140.673 21.5647 140.317 21.452 139.841 21.322C139.329 21.1747 138.922 21.0273 138.619 20.88C138.324 20.724 138.099 20.529 137.943 20.295C137.795 20.061 137.722 19.7577 137.722 19.385C137.722 18.787 137.956 18.3363 138.424 18.033C138.9 17.721 139.537 17.565 140.335 17.565C140.751 17.565 141.158 17.604 141.557 17.682C141.955 17.76 142.276 17.8683 142.519 18.007V19.099C142.267 18.9517 141.955 18.8347 141.583 18.748C141.219 18.6613 140.846 18.618 140.465 18.618C140.005 18.618 139.654 18.6743 139.412 18.787C139.169 18.8997 139.048 19.099 139.048 19.385C139.048 19.567 139.1 19.7143 139.204 19.827C139.308 19.9397 139.472 20.0393 139.698 20.126C139.932 20.204 140.3 20.308 140.803 20.438C141.591 20.6547 142.137 20.9103 142.441 21.205C142.753 21.4997 142.909 21.907 142.909 22.427C142.909 22.9643 142.688 23.3933 142.246 23.714C141.804 24.0347 141.149 24.195 140.283 24.195Z" fill="#F3F3F3"/>
</svg>
