<svg width="22" height="22" viewBox="0 0 22 22" fill="none" xmlns="http://www.w3.org/2000/svg">
<rect width="22" height="22" rx="11" fill="#F3F3F3"/>
<path d="M7.25 8.91659C7.25 8.69557 7.3378 8.48361 7.49408 8.32733C7.65036 8.17105 7.86232 8.08325 8.08333 8.08325H13.9167C14.1377 8.08325 14.3496 8.17105 14.5059 8.32733C14.6622 8.48361 14.75 8.69557 14.75 8.91659V13.0833C14.75 13.3043 14.6622 13.5162 14.5059 13.6725C14.3496 13.8288 14.1377 13.9166 13.9167 13.9166H8.08333C7.86232 13.9166 7.65036 13.8288 7.49408 13.6725C7.3378 13.5162 7.25 13.3043 7.25 13.0833V8.91659Z" fill="#F3F3F3" stroke="#0A132E" stroke-linecap="round" stroke-linejoin="round"/>
<path d="M7.25 8.9165L11 11.4165L14.75 8.9165" stroke="#0A132E" stroke-linecap="round" stroke-linejoin="round"/>
</svg>
