<svg width="240" height="40" viewBox="0 0 240 40" fill="none" xmlns="http://www.w3.org/2000/svg">
<rect width="240" height="40" rx="8" fill="#325FE8"/>
<path d="M23.5625 16.25V16.4375H23.75H27.4998C27.7816 16.4378 28.0517 16.5498 28.2509 16.7491C28.4502 16.9483 28.5622 17.2184 28.5625 17.5002V27.4998C28.5622 27.7816 28.4502 28.0517 28.2509 28.2509C28.0517 28.4502 27.7816 28.5622 27.4998 28.5625H17.5002C17.2184 28.5622 16.9483 28.4502 16.7491 28.2509C16.5498 28.0517 16.4378 27.7816 16.4375 27.4998V23.75V23.5625H16.25H12.5002C12.2184 23.5622 11.9483 23.4502 11.7491 23.2509C11.5498 23.0517 11.4378 22.7816 11.4375 22.4998L11.4375 12.5001C11.4378 12.2184 11.5499 11.9483 11.7491 11.7491C11.9483 11.5498 12.2184 11.4378 12.5002 11.4375L22.4999 11.4375C22.7816 11.4378 23.0517 11.5499 23.2509 11.7491C23.4502 11.9483 23.5622 12.2184 23.5625 12.5002V16.25ZM12.3125 22.5V22.6875H12.5H16.25H16.4375V22.5V12.5V12.3125H16.25H12.5H12.3125V12.5V22.5ZM23.5625 27.5V27.6875H23.75H27.5H27.6875V27.5V17.5V17.3125H27.5H23.75H23.5625V17.5V27.5Z" fill="#F3F3F3" stroke="#F3F3F3" stroke-width="0.375"/>
<path d="M34.845 14.913H36.184V24H34.845V14.913ZM37.8792 17.76H39.1532V18.657C39.4478 18.2843 39.8075 18.0113 40.2322 17.838C40.6655 17.656 41.1162 17.565 41.5842 17.565C42.4162 17.565 43.0358 17.786 43.4432 18.228C43.8505 18.67 44.0542 19.2637 44.0542 20.009V24H42.7412V20.139C42.7412 19.125 42.2558 18.618 41.2852 18.618C40.8692 18.618 40.4792 18.7177 40.1152 18.917C39.7598 19.1077 39.4522 19.4023 39.1922 19.801V24H37.8792V17.76ZM48.0791 24.195C47.4464 24.195 46.9568 24.013 46.6101 23.649C46.2721 23.285 46.1031 22.7693 46.1031 22.102V18.774H45.1541V17.76H46.1031V15.888H47.4291V17.76H48.9631V18.774H47.4291V22.011C47.4291 22.427 47.5071 22.7217 47.6631 22.895C47.8278 23.0683 48.1224 23.155 48.5471 23.155C48.7984 23.155 49.0498 23.0987 49.3011 22.986V24.026C48.9718 24.1387 48.5644 24.195 48.0791 24.195ZM53.9684 24.195C52.8157 24.195 51.9101 23.909 51.2514 23.337C50.6014 22.7563 50.2764 21.9417 50.2764 20.893C50.2764 19.8703 50.5667 19.06 51.1474 18.462C51.7367 17.864 52.5731 17.565 53.6564 17.565C54.3757 17.565 54.9867 17.7037 55.4894 17.981C55.9921 18.2497 56.3691 18.6267 56.6204 19.112C56.8804 19.5887 57.0104 20.1347 57.0104 20.75V21.4H51.5244C51.5677 21.9893 51.8147 22.4313 52.2654 22.726C52.7247 23.012 53.3444 23.155 54.1244 23.155C54.5231 23.155 54.9261 23.1203 55.3334 23.051C55.7407 22.973 56.1004 22.8733 56.4124 22.752V23.805C56.1351 23.9177 55.7667 24.0087 55.3074 24.078C54.8567 24.156 54.4104 24.195 53.9684 24.195ZM55.7754 20.477C55.7581 19.8877 55.5631 19.4327 55.1904 19.112C54.8264 18.7827 54.3064 18.618 53.6304 18.618C52.9717 18.618 52.4604 18.787 52.0964 19.125C51.7324 19.463 51.5417 19.9137 51.5244 20.477H55.7754ZM61.7086 26.99C61.2839 26.99 60.8679 26.9553 60.4606 26.886C60.0619 26.8167 59.7239 26.717 59.4466 26.587V25.508C60.0966 25.8027 60.8506 25.95 61.7086 25.95C62.5146 25.95 63.0996 25.7723 63.4636 25.417C63.8363 25.0703 64.0226 24.5417 64.0226 23.831V23.168C63.4506 23.8527 62.6099 24.195 61.5006 24.195C60.8679 24.195 60.3003 24.0563 59.7976 23.779C59.2949 23.5017 58.9006 23.1117 58.6146 22.609C58.3286 22.1063 58.1856 21.53 58.1856 20.88C58.1856 20.2213 58.3243 19.645 58.6016 19.151C58.8876 18.6483 59.2776 18.2583 59.7716 17.981C60.2743 17.7037 60.8376 17.565 61.4616 17.565C62.0423 17.565 62.5319 17.6517 62.9306 17.825C63.3379 17.9897 63.7149 18.267 64.0616 18.657V17.76H65.3356V23.688C65.3356 24.754 65.0366 25.5687 64.4386 26.132C63.8493 26.704 62.9393 26.99 61.7086 26.99ZM61.7606 23.155C62.2979 23.155 62.7703 23.012 63.1776 22.726C63.5936 22.44 63.8753 22.0587 64.0226 21.582V20.178C63.8579 19.6927 63.5719 19.3113 63.1646 19.034C62.7659 18.7567 62.2979 18.618 61.7606 18.618C61.3359 18.618 60.9503 18.7133 60.6036 18.904C60.2656 19.086 59.9969 19.3503 59.7976 19.697C59.6069 20.0437 59.5116 20.438 59.5116 20.88C59.5116 21.3307 59.6069 21.7293 59.7976 22.076C59.9969 22.414 60.2656 22.6783 60.6036 22.869C60.9503 23.0597 61.3359 23.155 61.7606 23.155ZM67.0276 17.76H68.3016V18.878C68.5616 18.4967 68.9256 18.215 69.3936 18.033C69.8703 17.851 70.4206 17.76 71.0446 17.76V18.787C70.3773 18.787 69.8053 18.8953 69.3286 19.112C68.852 19.3287 68.5226 19.671 68.3406 20.139V24H67.0276V17.76ZM73.872 24.195C73.118 24.195 72.5113 24.0043 72.052 23.623C71.6013 23.233 71.376 22.7087 71.376 22.05C71.376 21.3567 71.5927 20.8237 72.026 20.451C72.468 20.0697 73.092 19.879 73.898 19.879C74.756 19.879 75.484 20.0523 76.082 20.399V20.074C76.082 19.58 75.9303 19.216 75.627 18.982C75.3323 18.7393 74.8643 18.618 74.223 18.618C73.8417 18.618 73.469 18.657 73.105 18.735C72.7497 18.8043 72.429 18.904 72.143 19.034V17.968C72.403 17.8467 72.741 17.7513 73.157 17.682C73.573 17.604 73.976 17.565 74.366 17.565C75.3973 17.565 76.16 17.7947 76.654 18.254C77.1567 18.7047 77.408 19.333 77.408 20.139V24H76.173V23.298C75.9043 23.5927 75.5837 23.818 75.211 23.974C74.847 24.1213 74.4007 24.195 73.872 24.195ZM74.197 23.194C74.613 23.194 74.99 23.1117 75.328 22.947C75.666 22.7823 75.9173 22.5527 76.082 22.258V21.413C75.5187 21.049 74.8903 20.867 74.197 20.867C73.6943 20.867 73.3173 20.9667 73.066 21.166C72.8233 21.3567 72.702 21.6513 72.702 22.05C72.702 22.8127 73.2003 23.194 74.197 23.194ZM81.1123 24.195C80.4796 24.195 79.99 24.013 79.6433 23.649C79.3053 23.285 79.1363 22.7693 79.1363 22.102V18.774H78.1873V17.76H79.1363V15.888H80.4623V17.76H81.9963V18.774H80.4623V22.011C80.4623 22.427 80.5403 22.7217 80.6963 22.895C80.861 23.0683 81.1556 23.155 81.5803 23.155C81.8316 23.155 82.083 23.0987 82.3343 22.986V24.026C82.005 24.1387 81.5976 24.195 81.1123 24.195ZM84.3366 16.538C84.1199 16.538 83.9379 16.4643 83.7906 16.317C83.6433 16.1697 83.5696 15.9877 83.5696 15.771C83.5696 15.5543 83.6433 15.3723 83.7906 15.225C83.9379 15.0777 84.1199 15.004 84.3366 15.004C84.5619 15.004 84.7483 15.0777 84.8956 15.225C85.0516 15.3723 85.1296 15.5543 85.1296 15.771C85.1296 15.9877 85.0516 16.1697 84.8956 16.317C84.7483 16.4643 84.5619 16.538 84.3366 16.538ZM83.6736 17.76H85.0126V24H83.6736V17.76ZM90.1086 24.195C89.4066 24.195 88.7869 24.065 88.2496 23.805C87.7209 23.5363 87.3049 23.155 87.0016 22.661C86.7069 22.1583 86.5596 21.569 86.5596 20.893C86.5596 20.2257 86.7069 19.6407 87.0016 19.138C87.2963 18.6353 87.7123 18.2497 88.2496 17.981C88.7869 17.7037 89.4066 17.565 90.1086 17.565C90.8106 17.565 91.4303 17.7037 91.9676 17.981C92.5049 18.2497 92.9209 18.6353 93.2156 19.138C93.5189 19.6407 93.6706 20.2257 93.6706 20.893C93.6706 21.569 93.5189 22.1583 93.2156 22.661C92.9209 23.155 92.5049 23.5363 91.9676 23.805C91.4303 24.065 90.8106 24.195 90.1086 24.195ZM90.1086 23.155C90.7846 23.155 91.3219 22.947 91.7206 22.531C92.1193 22.115 92.3186 21.569 92.3186 20.893C92.3186 20.191 92.1193 19.6363 91.7206 19.229C91.3219 18.8217 90.7846 18.618 90.1086 18.618C89.4326 18.618 88.8953 18.8217 88.4966 19.229C88.0979 19.6363 87.8986 20.191 87.8986 20.893C87.8986 21.569 88.0979 22.115 88.4966 22.531C88.8953 22.947 89.4326 23.155 90.1086 23.155ZM95.097 17.76H96.371V18.657C96.6656 18.2843 97.0253 18.0113 97.45 17.838C97.8833 17.656 98.334 17.565 98.802 17.565C99.634 17.565 100.254 17.786 100.661 18.228C101.068 18.67 101.272 19.2637 101.272 20.009V24H99.959V20.139C99.959 19.125 99.4736 18.618 98.503 18.618C98.087 18.618 97.697 18.7177 97.333 18.917C96.9776 19.1077 96.67 19.4023 96.41 19.801V24H95.097V17.76ZM105.193 24.195C104.76 24.195 104.3 24.1387 103.815 24.026C103.33 23.922 102.948 23.779 102.671 23.597V22.479C103.009 22.6783 103.399 22.843 103.841 22.973C104.283 23.0943 104.712 23.155 105.128 23.155C105.596 23.155 105.938 23.0987 106.155 22.986C106.372 22.8733 106.48 22.6913 106.48 22.44C106.48 22.2493 106.428 22.0977 106.324 21.985C106.229 21.8637 106.06 21.7553 105.817 21.66C105.583 21.5647 105.228 21.452 104.751 21.322C104.24 21.1747 103.832 21.0273 103.529 20.88C103.234 20.724 103.009 20.529 102.853 20.295C102.706 20.061 102.632 19.7577 102.632 19.385C102.632 18.787 102.866 18.3363 103.334 18.033C103.811 17.721 104.448 17.565 105.245 17.565C105.661 17.565 106.068 17.604 106.467 17.682C106.866 17.76 107.186 17.8683 107.429 18.007V19.099C107.178 18.9517 106.866 18.8347 106.493 18.748C106.129 18.6613 105.756 18.618 105.375 18.618C104.916 18.618 104.565 18.6743 104.322 18.787C104.079 18.8997 103.958 19.099 103.958 19.385C103.958 19.567 104.01 19.7143 104.114 19.827C104.218 19.9397 104.383 20.0393 104.608 20.126C104.842 20.204 105.21 20.308 105.713 20.438C106.502 20.6547 107.048 20.9103 107.351 21.205C107.663 21.4997 107.819 21.907 107.819 22.427C107.819 22.9643 107.598 23.3933 107.156 23.714C106.714 24.0347 106.06 24.195 105.193 24.195Z" fill="#F3F3F3"/>
</svg>
