<svg width="22" height="22" viewBox="0 0 22 22" fill="none" xmlns="http://www.w3.org/2000/svg">
<rect width="22" height="22" rx="11" fill="#F3F3F3"/>
<g clip-path="url(#clip0_185_5647)">
<path fill-rule="evenodd" clip-rule="evenodd" d="M13.8125 9.75022C13.8138 10.3529 13.6202 10.9398 13.2606 11.4233L11 14.4377L8.73938 11.4233C8.47469 11.0657 8.29862 10.6505 8.22562 10.2116C8.15262 9.77271 8.18478 9.32279 8.31945 8.89876C8.45412 8.47473 8.68746 8.0887 9.00031 7.77238C9.31316 7.45605 9.69659 7.21846 10.1191 7.07912C10.5416 6.93977 10.9912 6.90265 11.4308 6.9708C11.8705 7.03894 12.2877 7.21042 12.6482 7.47114C13.0087 7.73186 13.3022 8.07438 13.5046 8.47057C13.707 8.86676 13.8125 9.30532 13.8125 9.75022ZM14.75 9.75022C14.75 10.5877 14.4756 11.3602 14.0125 11.984L11.5856 15.219L11 16.0002L10.4138 15.219L7.9875 11.984C7.63418 11.5074 7.39898 10.9537 7.30124 10.3685C7.2035 9.78335 7.246 9.18333 7.42524 8.61777C7.60449 8.0522 7.91537 7.53724 8.33234 7.11519C8.74931 6.69314 9.26047 6.37604 9.82383 6.18996C10.3872 6.00388 10.9866 5.95411 11.573 6.04476C12.1593 6.13541 12.7157 6.36389 13.1966 6.71141C13.6774 7.05893 14.069 7.51559 14.339 8.04386C14.6091 8.57213 14.7499 9.15693 14.75 9.75022ZM11 11.0002C11.3315 11.0002 11.6495 10.8685 11.8839 10.6341C12.1183 10.3997 12.25 10.0817 12.25 9.75022C12.25 9.4187 12.1183 9.10076 11.8839 8.86634C11.6495 8.63191 11.3315 8.50022 11 8.50022C10.6685 8.50022 10.3505 8.63191 10.1161 8.86634C9.8817 9.10076 9.75 9.4187 9.75 9.75022C9.75 10.0817 9.8817 10.3997 10.1161 10.6341C10.3505 10.8685 10.6685 11.0002 11 11.0002Z" fill="#0A132E"/>
</g>
<defs>
<clipPath id="clip0_185_5647">
<rect width="10" height="10" fill="white" transform="translate(6 6)"/>
</clipPath>
</defs>
</svg>
