<svg width="22" height="22" viewBox="0 0 22 22" fill="none" xmlns="http://www.w3.org/2000/svg">
<rect width="22" height="22" rx="11" fill="#F3F3F3"/>
<path d="M10.6342 8.12583C10.5726 7.95801 10.449 7.82013 10.289 7.74049C10.1289 7.66084 9.94441 7.64546 9.77337 7.6975C8.96253 7.9475 8.39587 8.64333 8.51753 9.44833C8.6536 10.3418 8.95636 11.2017 9.41003 11.9833C9.85886 12.7632 10.4473 13.4538 11.1459 14.0208C11.7742 14.5292 12.6559 14.3892 13.2775 13.8058C13.4083 13.6831 13.4876 13.5153 13.4996 13.3364C13.5115 13.1574 13.455 12.9806 13.3417 12.8417L12.8967 12.2975C12.8076 12.1881 12.6876 12.108 12.5524 12.0675C12.4172 12.0271 12.2729 12.0283 12.1384 12.0708L11.1117 12.3958L10.9325 12.2108C10.7068 11.9767 10.5093 11.7169 10.3442 11.4367C10.1839 11.1533 10.0591 10.8513 9.97253 10.5375L9.90337 10.2917L10.695 9.5625C10.7995 9.4655 10.8728 9.33965 10.9056 9.20092C10.9384 9.06219 10.9292 8.91684 10.8792 8.78333L10.635 8.12667L10.6342 8.12583ZM9.52837 6.90083C9.90266 6.78632 10.3066 6.81928 10.6574 6.99296C11.0081 7.16664 11.2792 7.4679 11.415 7.835L11.6592 8.49167C11.7669 8.78016 11.7864 9.09417 11.7152 9.39377C11.6439 9.69337 11.4852 9.96501 11.2592 10.1742L10.8509 10.55C10.9034 10.695 10.9742 10.8608 11.0659 11.0217C11.1575 11.18 11.2642 11.3242 11.3617 11.4417L11.8867 11.275C12.1802 11.1823 12.4948 11.1799 12.7897 11.268C13.0846 11.3561 13.3463 11.5307 13.5409 11.7692L13.9859 12.3133C14.2332 12.6158 14.3564 13.0008 14.3308 13.3906C14.3051 13.7804 14.1324 14.146 13.8475 14.4133C13.0192 15.1908 11.6667 15.5133 10.6225 14.6683C9.84448 14.0371 9.18914 13.2682 8.6892 12.4C8.18307 11.5282 7.84527 10.5691 7.69337 9.5725C7.49337 8.245 8.44587 7.23417 9.52837 6.90167V6.90083Z" fill="#0A132E"/>
</svg>
