<svg width="240" height="40" viewBox="0 0 240 40" fill="none" xmlns="http://www.w3.org/2000/svg">
<path d="M13.333 25C13.333 24.1159 13.6842 23.2681 14.3093 22.6429C14.9344 22.0178 15.7823 21.6666 16.6663 21.6666H23.333C24.2171 21.6666 25.0649 22.0178 25.69 22.6429C26.3152 23.2681 26.6663 24.1159 26.6663 25C26.6663 25.442 26.4907 25.8659 26.1782 26.1785C25.8656 26.491 25.4417 26.6666 24.9997 26.6666H14.9997C14.5576 26.6666 14.1337 26.491 13.8212 26.1785C13.5086 25.8659 13.333 25.442 13.333 25Z" stroke="#F3F3F3" stroke-width="2" stroke-linejoin="round"/>
<path d="M20 18.3333C21.3807 18.3333 22.5 17.214 22.5 15.8333C22.5 14.4526 21.3807 13.3333 20 13.3333C18.6193 13.3333 17.5 14.4526 17.5 15.8333C17.5 17.214 18.6193 18.3333 20 18.3333Z" stroke="#F3F3F3" stroke-width="2"/>
<path d="M39.603 24C38.615 24 37.7397 23.8137 36.977 23.441C36.223 23.0683 35.6337 22.5397 35.209 21.855C34.793 21.1617 34.585 20.3557 34.585 19.437C34.585 18.5097 34.793 17.6907 35.209 16.98C35.625 16.2607 36.197 15.706 36.925 15.316C37.653 14.9173 38.4677 14.718 39.369 14.718C40.2703 14.718 41.085 14.9173 41.813 15.316C42.541 15.706 43.113 16.2607 43.529 16.98C43.945 17.6907 44.153 18.5097 44.153 19.437C44.153 20.1737 43.984 20.8497 43.646 21.465C43.3167 22.0717 42.879 22.5353 42.333 22.856H44.296V24H39.603ZM39.369 22.791C40.0363 22.791 40.63 22.661 41.15 22.401C41.67 22.141 42.073 21.7597 42.359 21.257C42.6537 20.7457 42.801 20.139 42.801 19.437C42.801 18.7437 42.6493 18.1327 42.346 17.604C42.0427 17.0667 41.631 16.655 41.111 16.369C40.591 16.083 40.0103 15.94 39.369 15.94C38.7277 15.94 38.1427 16.083 37.614 16.369C37.094 16.655 36.6823 17.0623 36.379 17.591C36.0757 18.1197 35.924 18.735 35.924 19.437C35.924 20.1477 36.067 20.7543 36.353 21.257C36.6477 21.7597 37.055 22.141 37.575 22.401C38.095 22.661 38.693 22.791 39.369 22.791ZM47.954 24.195C47.1133 24.195 46.4763 23.9697 46.043 23.519C45.6183 23.0683 45.406 22.466 45.406 21.712V17.76H46.719V21.66C46.719 22.6567 47.2173 23.155 48.214 23.155C49.0893 23.155 49.774 22.7607 50.268 21.972V17.76H51.581V24H50.307V23.116C50.0123 23.4887 49.6613 23.7617 49.254 23.935C48.8553 24.1083 48.422 24.195 47.954 24.195ZM54.0329 16.538C53.8162 16.538 53.6342 16.4643 53.4869 16.317C53.3396 16.1697 53.2659 15.9877 53.2659 15.771C53.2659 15.5543 53.3396 15.3723 53.4869 15.225C53.6342 15.0777 53.8162 15.004 54.0329 15.004C54.2582 15.004 54.4446 15.0777 54.5919 15.225C54.7479 15.3723 54.8259 15.5543 54.8259 15.771C54.8259 15.9877 54.7479 16.1697 54.5919 16.317C54.4446 16.4643 54.2582 16.538 54.0329 16.538ZM53.3699 17.76H54.7089V24H53.3699V17.76ZM59.8049 24.195C59.1116 24.195 58.4962 24.065 57.9589 23.805C57.4216 23.545 57.0012 23.168 56.6979 22.674C56.4032 22.1713 56.2559 21.5777 56.2559 20.893C56.2559 20.2083 56.4032 19.619 56.6979 19.125C57.0012 18.6223 57.4216 18.2367 57.9589 17.968C58.5049 17.6993 59.1289 17.565 59.8309 17.565C60.7842 17.565 61.5469 17.7513 62.1189 18.124V19.203C61.5556 18.813 60.8362 18.618 59.9609 18.618C59.2502 18.618 58.6739 18.813 58.2319 19.203C57.7986 19.5843 57.5819 20.1477 57.5819 20.893C57.5819 21.6383 57.7986 22.2017 58.2319 22.583C58.6652 22.9643 59.2329 23.155 59.9349 23.155C60.8102 23.155 61.5642 22.947 62.1969 22.531V23.597C61.8936 23.805 61.5469 23.9567 61.1569 24.052C60.7756 24.1473 60.3249 24.195 59.8049 24.195ZM63.6253 14.393H64.9383V24H63.6253V14.393ZM64.9513 20.841L67.8243 17.76H69.4233L66.5373 20.841L69.7223 24H68.1233L64.9513 20.841ZM78.1392 24.195C77.7058 24.195 77.2465 24.1387 76.7612 24.026C76.2758 23.922 75.8945 23.779 75.6172 23.597V22.479C75.9552 22.6783 76.3452 22.843 76.7872 22.973C77.2292 23.0943 77.6582 23.155 78.0742 23.155C78.5422 23.155 78.8845 23.0987 79.1012 22.986C79.3178 22.8733 79.4262 22.6913 79.4262 22.44C79.4262 22.2493 79.3742 22.0977 79.2702 21.985C79.1748 21.8637 79.0058 21.7553 78.7632 21.66C78.5292 21.5647 78.1738 21.452 77.6972 21.322C77.1858 21.1747 76.7785 21.0273 76.4752 20.88C76.1805 20.724 75.9552 20.529 75.7992 20.295C75.6518 20.061 75.5782 19.7577 75.5782 19.385C75.5782 18.787 75.8122 18.3363 76.2802 18.033C76.7568 17.721 77.3938 17.565 78.1912 17.565C78.6072 17.565 79.0145 17.604 79.4132 17.682C79.8118 17.76 80.1325 17.8683 80.3752 18.007V19.099C80.1238 18.9517 79.8118 18.8347 79.4392 18.748C79.0752 18.6613 78.7025 18.618 78.3212 18.618C77.8618 18.618 77.5108 18.6743 77.2682 18.787C77.0255 18.8997 76.9042 19.099 76.9042 19.385C76.9042 19.567 76.9562 19.7143 77.0602 19.827C77.1642 19.9397 77.3288 20.0393 77.5542 20.126C77.7882 20.204 78.1565 20.308 78.6592 20.438C79.4478 20.6547 79.9938 20.9103 80.2972 21.205C80.6092 21.4997 80.7652 21.907 80.7652 22.427C80.7652 22.9643 80.5442 23.3933 80.1022 23.714C79.6602 24.0347 79.0058 24.195 78.1392 24.195ZM84.4131 24.195C83.7804 24.195 83.2908 24.013 82.9441 23.649C82.6061 23.285 82.4371 22.7693 82.4371 22.102V18.774H81.4881V17.76H82.4371V15.888H83.7631V17.76H85.2971V18.774H83.7631V22.011C83.7631 22.427 83.8411 22.7217 83.9971 22.895C84.1618 23.0683 84.4564 23.155 84.8811 23.155C85.1324 23.155 85.3838 23.0987 85.6351 22.986V24.026C85.3058 24.1387 84.8984 24.195 84.4131 24.195ZM88.916 24.195C88.162 24.195 87.5553 24.0043 87.096 23.623C86.6453 23.233 86.42 22.7087 86.42 22.05C86.42 21.3567 86.6366 20.8237 87.07 20.451C87.512 20.0697 88.136 19.879 88.942 19.879C89.8 19.879 90.528 20.0523 91.126 20.399V20.074C91.126 19.58 90.9743 19.216 90.671 18.982C90.3763 18.7393 89.9083 18.618 89.267 18.618C88.8856 18.618 88.513 18.657 88.149 18.735C87.7936 18.8043 87.473 18.904 87.187 19.034V17.968C87.447 17.8467 87.785 17.7513 88.201 17.682C88.617 17.604 89.02 17.565 89.41 17.565C90.4413 17.565 91.204 17.7947 91.698 18.254C92.2006 18.7047 92.452 19.333 92.452 20.139V24H91.217V23.298C90.9483 23.5927 90.6276 23.818 90.255 23.974C89.891 24.1213 89.4446 24.195 88.916 24.195ZM89.241 23.194C89.657 23.194 90.034 23.1117 90.372 22.947C90.71 22.7823 90.9613 22.5527 91.126 22.258V21.413C90.5626 21.049 89.9343 20.867 89.241 20.867C88.7383 20.867 88.3613 20.9667 88.11 21.166C87.8673 21.3567 87.746 21.6513 87.746 22.05C87.746 22.8127 88.2443 23.194 89.241 23.194ZM94.0813 17.76H95.3553V18.878C95.6153 18.4967 95.9793 18.215 96.4473 18.033C96.924 17.851 97.4743 17.76 98.0983 17.76V18.787C97.431 18.787 96.859 18.8953 96.3823 19.112C95.9057 19.3287 95.5763 19.671 95.3943 20.139V24H94.0813V17.76ZM101.679 24.195C101.046 24.195 100.556 24.013 100.21 23.649C99.8717 23.285 99.7027 22.7693 99.7027 22.102V18.774H98.7537V17.76H99.7027V15.888H101.029V17.76H102.563V18.774H101.029V22.011C101.029 22.427 101.107 22.7217 101.263 22.895C101.427 23.0683 101.722 23.155 102.147 23.155C102.398 23.155 102.649 23.0987 102.901 22.986V24.026C102.571 24.1387 102.164 24.195 101.679 24.195ZM112.211 26.99C111.786 26.99 111.37 26.9553 110.963 26.886C110.564 26.8167 110.226 26.717 109.949 26.587V25.508C110.599 25.8027 111.353 25.95 112.211 25.95C113.017 25.95 113.602 25.7723 113.966 25.417C114.338 25.0703 114.525 24.5417 114.525 23.831V23.168C113.953 23.8527 113.112 24.195 112.003 24.195C111.37 24.195 110.802 24.0563 110.3 23.779C109.797 23.5017 109.403 23.1117 109.117 22.609C108.831 22.1063 108.688 21.53 108.688 20.88C108.688 20.2213 108.826 19.645 109.104 19.151C109.39 18.6483 109.78 18.2583 110.274 17.981C110.776 17.7037 111.34 17.565 111.964 17.565C112.544 17.565 113.034 17.6517 113.433 17.825C113.84 17.9897 114.217 18.267 114.564 18.657V17.76H115.838V23.688C115.838 24.754 115.539 25.5687 114.941 26.132C114.351 26.704 113.441 26.99 112.211 26.99ZM112.263 23.155C112.8 23.155 113.272 23.012 113.68 22.726C114.096 22.44 114.377 22.0587 114.525 21.582V20.178C114.36 19.6927 114.074 19.3113 113.667 19.034C113.268 18.7567 112.8 18.618 112.263 18.618C111.838 18.618 111.452 18.7133 111.106 18.904C110.768 19.086 110.499 19.3503 110.3 19.697C110.109 20.0437 110.014 20.438 110.014 20.88C110.014 21.3307 110.109 21.7293 110.3 22.076C110.499 22.414 110.768 22.6783 111.106 22.869C111.452 23.0597 111.838 23.155 112.263 23.155ZM120.013 24.195C119.172 24.195 118.535 23.9697 118.102 23.519C117.677 23.0683 117.465 22.466 117.465 21.712V17.76H118.778V21.66C118.778 22.6567 119.276 23.155 120.273 23.155C121.148 23.155 121.833 22.7607 122.327 21.972V17.76H123.64V24H122.366V23.116C122.071 23.4887 121.72 23.7617 121.313 23.935C120.914 24.1083 120.481 24.195 120.013 24.195ZM126.091 16.538C125.875 16.538 125.693 16.4643 125.545 16.317C125.398 16.1697 125.324 15.9877 125.324 15.771C125.324 15.5543 125.398 15.3723 125.545 15.225C125.693 15.0777 125.875 15.004 126.091 15.004C126.317 15.004 126.503 15.0777 126.65 15.225C126.806 15.3723 126.884 15.5543 126.884 15.771C126.884 15.9877 126.806 16.1697 126.65 16.317C126.503 16.4643 126.317 16.538 126.091 16.538ZM125.428 17.76H126.767V24H125.428V17.76ZM131.59 24.195C130.966 24.195 130.403 24.0607 129.9 23.792C129.406 23.5147 129.016 23.129 128.73 22.635C128.453 22.1323 128.314 21.5517 128.314 20.893C128.314 20.243 128.453 19.6667 128.73 19.164C129.016 18.6613 129.406 18.2713 129.9 17.994C130.403 17.708 130.966 17.565 131.59 17.565C132.717 17.565 133.571 17.9073 134.151 18.592V14.393H135.464V24H134.19V23.09C133.844 23.4713 133.462 23.753 133.046 23.935C132.639 24.1083 132.154 24.195 131.59 24.195ZM131.889 23.155C132.427 23.155 132.895 23.0163 133.293 22.739C133.701 22.453 133.987 22.0717 134.151 21.595V20.191C134.004 19.7143 133.722 19.333 133.306 19.047C132.899 18.761 132.427 18.618 131.889 18.618C131.465 18.618 131.079 18.7133 130.732 18.904C130.394 19.0947 130.126 19.3633 129.926 19.71C129.736 20.0567 129.64 20.451 129.64 20.893C129.64 21.335 129.736 21.7293 129.926 22.076C130.126 22.4227 130.394 22.6913 130.732 22.882C131.079 23.064 131.465 23.155 131.889 23.155ZM140.589 24.195C139.436 24.195 138.53 23.909 137.872 23.337C137.222 22.7563 136.897 21.9417 136.897 20.893C136.897 19.8703 137.187 19.06 137.768 18.462C138.357 17.864 139.193 17.565 140.277 17.565C140.996 17.565 141.607 17.7037 142.11 17.981C142.612 18.2497 142.989 18.6267 143.241 19.112C143.501 19.5887 143.631 20.1347 143.631 20.75V21.4H138.145C138.188 21.9893 138.435 22.4313 138.886 22.726C139.345 23.012 139.965 23.155 140.745 23.155C141.143 23.155 141.546 23.1203 141.954 23.051C142.361 22.973 142.721 22.8733 143.033 22.752V23.805C142.755 23.9177 142.387 24.0087 141.928 24.078C141.477 24.156 141.031 24.195 140.589 24.195ZM142.396 20.477C142.378 19.8877 142.183 19.4327 141.811 19.112C141.447 18.7827 140.927 18.618 140.251 18.618C139.592 18.618 139.081 18.787 138.717 19.125C138.353 19.463 138.162 19.9137 138.145 20.477H142.396Z" fill="#F3F3F3"/>
</svg>
