<svg width="16" height="16" viewBox="0 0 16 16" fill="none" xmlns="http://www.w3.org/2000/svg">
<path d="M4.66659 7.99998L7.16659 10.5L11.3333 5.49998M1.33325 12V3.99998C1.33325 3.06665 1.33325 2.59998 1.51492 2.24331C1.67492 1.92915 1.92909 1.67498 2.24325 1.51498C2.59992 1.33331 3.06659 1.33331 3.99992 1.33331H11.9999C12.9333 1.33331 13.3999 1.33331 13.7558 1.51498C14.0699 1.67498 14.3249 1.92915 14.4849 2.24331C14.6666 2.59915 14.6666 3.06581 14.6666 3.99748V12.0033C14.6666 12.935 14.6666 13.4008 14.4849 13.7566C14.3248 14.0703 14.0696 14.3252 13.7558 14.485C13.3999 14.6666 12.9341 14.6666 12.0024 14.6666H3.99742C3.06575 14.6666 2.59909 14.6666 2.24325 14.485C1.92966 14.3252 1.67471 14.0702 1.51492 13.7566C1.33325 13.4 1.33325 12.9333 1.33325 12Z" stroke="#F3F3F3" stroke-width="1.5" stroke-linecap="round" stroke-linejoin="round"/>
</svg>
