<svg width="70" height="504" viewBox="0 0 70 504" fill="none" xmlns="http://www.w3.org/2000/svg">
<path d="M33.125 20C32.0895 20 31.25 20.8395 31.25 21.875C31.25 22.9105 32.0895 23.75 33.125 23.75H44.25C45.3546 23.75 46.25 24.6454 46.25 25.75V40.5C46.25 41.6046 45.3546 42.5 44.25 42.5H33.125C32.0895 42.5 31.25 43.3395 31.25 44.375C31.25 45.4105 32.0895 46.25 33.125 46.25H48C49.1046 46.25 50 45.3546 50 44.25V22C50 20.8954 49.1046 20 48 20H33.125ZM37 29C36.176 28.382 35 28.9699 35 30C35 30.6904 34.4404 31.25 33.75 31.25H21.875C20.8395 31.25 20 32.0895 20 33.125C20 34.1605 20.8395 35 21.875 35H33.75C34.4404 35 35 35.5596 35 36.25C35 37.2801 36.176 37.868 37 37.25L40.3667 34.725C41.4333 33.925 41.4333 32.325 40.3667 31.525L37 29Z" fill="#1C1C1C"/>
<rect x="7" y="7" width="56" height="56" rx="28" stroke="#BFCDF8" stroke-width="4"/>
<rect x="2.5" y="2.5" width="65" height="65" rx="32.5" stroke="#325FE8" stroke-width="5"/>
<path d="M33.125 237C32.0895 237 31.25 237.839 31.25 238.875C31.25 239.911 32.0895 240.75 33.125 240.75H44.25C45.3546 240.75 46.25 241.645 46.25 242.75V257.5C46.25 258.605 45.3546 259.5 44.25 259.5H33.125C32.0895 259.5 31.25 260.339 31.25 261.375C31.25 262.411 32.0895 263.25 33.125 263.25H48C49.1046 263.25 50 262.355 50 261.25V239C50 237.895 49.1046 237 48 237H33.125ZM37 246C36.176 245.382 35 245.97 35 247C35 247.69 34.4404 248.25 33.75 248.25H21.875C20.8395 248.25 20 249.089 20 250.125C20 251.161 20.8395 252 21.875 252H33.75C34.4404 252 35 252.56 35 253.25C35 254.28 36.176 254.868 37 254.25L40.3667 251.725C41.4333 250.925 41.4333 249.325 40.3667 248.525L37 246Z" fill="#1C1C1C"/>
<rect x="7" y="224" width="56" height="56" rx="28" stroke="#BFCDF8" stroke-width="4"/>
<rect x="2.5" y="219.5" width="65" height="65" rx="32.5" stroke="#325FE8" stroke-width="5"/>
<path d="M39.95 472C40.05 471.175 40.125 470.35 40.125 469.5C40.125 468.65 40.05 467.825 39.95 467H44.175C44.375 467.8 44.5 468.637 44.5 469.5C44.5 470.363 44.375 471.2 44.175 472M37.7375 478.95C38.4875 477.562 39.0625 476.062 39.4625 474.5H43.15C41.939 476.585 40.0176 478.165 37.7375 478.95ZM37.425 472H31.575C31.45 471.175 31.375 470.35 31.375 469.5C31.375 468.65 31.45 467.812 31.575 467H37.425C37.5375 467.812 37.625 468.65 37.625 469.5C37.625 470.35 37.5375 471.175 37.425 472ZM34.5 479.45C33.4625 477.95 32.625 476.288 32.1125 474.5H36.8875C36.375 476.288 35.5375 477.95 34.5 479.45ZM29.5 464.5H25.85C27.0486 462.409 28.9685 460.827 31.25 460.05C30.5 461.438 29.9375 462.938 29.5 464.5ZM25.85 474.5H29.5C29.9375 476.062 30.5 477.562 31.25 478.95C28.9733 478.165 27.0561 476.585 25.85 474.5ZM24.825 472C24.625 471.2 24.5 470.363 24.5 469.5C24.5 468.637 24.625 467.8 24.825 467H29.05C28.95 467.825 28.875 468.65 28.875 469.5C28.875 470.35 28.95 471.175 29.05 472M34.5 459.538C35.5375 461.038 36.375 462.713 36.8875 464.5H32.1125C32.625 462.713 33.4625 461.038 34.5 459.538ZM43.15 464.5H39.4625C39.0713 462.952 38.492 461.457 37.7375 460.05C40.0375 460.838 41.95 462.425 43.15 464.5ZM34.5 457C27.5875 457 22 462.625 22 469.5C22 472.815 23.317 475.995 25.6612 478.339C26.8219 479.5 28.1999 480.42 29.7165 481.048C31.233 481.677 32.8585 482 34.5 482C37.8152 482 40.9946 480.683 43.3388 478.339C45.683 475.995 47 472.815 47 469.5C47 467.858 46.6767 466.233 46.0485 464.716C45.4203 463.2 44.4996 461.822 43.3388 460.661C42.1781 459.5 40.8001 458.58 39.2835 457.952C37.767 457.323 36.1415 457 34.5 457Z" fill="#1C1C1C"/>
<rect x="7" y="441" width="56" height="56" rx="28" stroke="#BFCDF8" stroke-width="4"/>
<rect x="2.5" y="436.5" width="65" height="65" rx="32.5" stroke="#325FE8" stroke-width="5"/>
<path d="M34.5 78C35.8807 78 37 79.1193 37 80.5C37 81.8807 35.8807 83 34.5 83C33.1193 83 32 81.8807 32 80.5C32 79.1193 33.1193 78 34.5 78Z" fill="url(#paint0_radial_183_3575)"/>
<path d="M34.5 87C35.8807 87 37 88.1193 37 89.5C37 90.8807 35.8807 92 34.5 92C33.1193 92 32 90.8807 32 89.5C32 88.1193 33.1193 87 34.5 87Z" fill="url(#paint1_radial_183_3575)"/>
<path d="M34.5 96C35.8807 96 37 97.1193 37 98.5C37 99.8807 35.8807 101 34.5 101C33.1193 101 32 99.8807 32 98.5C32 97.1193 33.1193 96 34.5 96Z" fill="url(#paint2_radial_183_3575)"/>
<path d="M34.5 105C35.8807 105 37 106.119 37 107.5C37 108.881 35.8807 110 34.5 110C33.1193 110 32 108.881 32 107.5C32 106.119 33.1193 105 34.5 105Z" fill="url(#paint3_radial_183_3575)"/>
<path d="M34.5 114C35.8807 114 37 115.119 37 116.5C37 117.881 35.8807 119 34.5 119C33.1193 119 32 117.881 32 116.5C32 115.119 33.1193 114 34.5 114Z" fill="url(#paint4_radial_183_3575)"/>
<path d="M34.5 123C35.8807 123 37 124.119 37 125.5C37 126.881 35.8807 128 34.5 128C33.1193 128 32 126.881 32 125.5C32 124.119 33.1193 123 34.5 123Z" fill="url(#paint5_radial_183_3575)"/>
<path d="M34.5 132C35.8807 132 37 133.119 37 134.5C37 135.881 35.8807 137 34.5 137C33.1193 137 32 135.881 32 134.5C32 133.119 33.1193 132 34.5 132Z" fill="url(#paint6_radial_183_3575)"/>
<path d="M34.5 141C35.8807 141 37 142.119 37 143.5C37 144.881 35.8807 146 34.5 146C33.1193 146 32 144.881 32 143.5C32 142.119 33.1193 141 34.5 141Z" fill="url(#paint7_radial_183_3575)"/>
<path d="M34.5 150C35.8807 150 37 151.119 37 152.5C37 153.881 35.8807 155 34.5 155C33.1193 155 32 153.881 32 152.5C32 151.119 33.1193 150 34.5 150Z" fill="url(#paint8_radial_183_3575)"/>
<path d="M34.5 159C35.8807 159 37 160.119 37 161.5C37 162.881 35.8807 164 34.5 164C33.1193 164 32 162.881 32 161.5C32 160.119 33.1193 159 34.5 159Z" fill="url(#paint9_radial_183_3575)"/>
<path d="M34.5 168C35.8807 168 37 169.119 37 170.5C37 171.881 35.8807 173 34.5 173C33.1193 173 32 171.881 32 170.5C32 169.119 33.1193 168 34.5 168Z" fill="url(#paint10_radial_183_3575)"/>
<path d="M34.5 177C35.8807 177 37 178.119 37 179.5C37 180.881 35.8807 182 34.5 182C33.1193 182 32 180.881 32 179.5C32 178.119 33.1193 177 34.5 177Z" fill="url(#paint11_radial_183_3575)"/>
<path d="M34.5 186C35.8807 186 37 187.119 37 188.5C37 189.881 35.8807 191 34.5 191C33.1193 191 32 189.881 32 188.5C32 187.119 33.1193 186 34.5 186Z" fill="url(#paint12_radial_183_3575)"/>
<path d="M34.5 195C35.8807 195 37 196.119 37 197.5C37 198.881 35.8807 200 34.5 200C33.1193 200 32 198.881 32 197.5C32 196.119 33.1193 195 34.5 195Z" fill="url(#paint13_radial_183_3575)"/>
<path d="M34.5 204C35.8807 204 37 205.119 37 206.5C37 207.881 35.8807 209 34.5 209C33.1193 209 32 207.881 32 206.5C32 205.119 33.1193 204 34.5 204Z" fill="url(#paint14_radial_183_3575)"/>
<path d="M34.5 295C35.8807 295 37 296.119 37 297.5C37 298.881 35.8807 300 34.5 300C33.1193 300 32 298.881 32 297.5C32 296.119 33.1193 295 34.5 295Z" fill="url(#paint15_radial_183_3575)"/>
<path d="M34.5 304C35.8807 304 37 305.119 37 306.5C37 307.881 35.8807 309 34.5 309C33.1193 309 32 307.881 32 306.5C32 305.119 33.1193 304 34.5 304Z" fill="url(#paint16_radial_183_3575)"/>
<path d="M34.5 313C35.8807 313 37 314.119 37 315.5C37 316.881 35.8807 318 34.5 318C33.1193 318 32 316.881 32 315.5C32 314.119 33.1193 313 34.5 313Z" fill="url(#paint17_radial_183_3575)"/>
<path d="M34.5 322C35.8807 322 37 323.119 37 324.5C37 325.881 35.8807 327 34.5 327C33.1193 327 32 325.881 32 324.5C32 323.119 33.1193 322 34.5 322Z" fill="url(#paint18_radial_183_3575)"/>
<path d="M34.5 331C35.8807 331 37 332.119 37 333.5C37 334.881 35.8807 336 34.5 336C33.1193 336 32 334.881 32 333.5C32 332.119 33.1193 331 34.5 331Z" fill="url(#paint19_radial_183_3575)"/>
<path d="M34.5 340C35.8807 340 37 341.119 37 342.5C37 343.881 35.8807 345 34.5 345C33.1193 345 32 343.881 32 342.5C32 341.119 33.1193 340 34.5 340Z" fill="url(#paint20_radial_183_3575)"/>
<path d="M34.5 349C35.8807 349 37 350.119 37 351.5C37 352.881 35.8807 354 34.5 354C33.1193 354 32 352.881 32 351.5C32 350.119 33.1193 349 34.5 349Z" fill="url(#paint21_radial_183_3575)"/>
<path d="M34.5 358C35.8807 358 37 359.119 37 360.5C37 361.881 35.8807 363 34.5 363C33.1193 363 32 361.881 32 360.5C32 359.119 33.1193 358 34.5 358Z" fill="url(#paint22_radial_183_3575)"/>
<path d="M34.5 367C35.8807 367 37 368.119 37 369.5C37 370.881 35.8807 372 34.5 372C33.1193 372 32 370.881 32 369.5C32 368.119 33.1193 367 34.5 367Z" fill="url(#paint23_radial_183_3575)"/>
<path d="M34.5 376C35.8807 376 37 377.119 37 378.5C37 379.881 35.8807 381 34.5 381C33.1193 381 32 379.881 32 378.5C32 377.119 33.1193 376 34.5 376Z" fill="url(#paint24_radial_183_3575)"/>
<path d="M34.5 385C35.8807 385 37 386.119 37 387.5C37 388.881 35.8807 390 34.5 390C33.1193 390 32 388.881 32 387.5C32 386.119 33.1193 385 34.5 385Z" fill="url(#paint25_radial_183_3575)"/>
<path d="M34.5 394C35.8807 394 37 395.119 37 396.5C37 397.881 35.8807 399 34.5 399C33.1193 399 32 397.881 32 396.5C32 395.119 33.1193 394 34.5 394Z" fill="url(#paint26_radial_183_3575)"/>
<path d="M34.5 403C35.8807 403 37 404.119 37 405.5C37 406.881 35.8807 408 34.5 408C33.1193 408 32 406.881 32 405.5C32 404.119 33.1193 403 34.5 403Z" fill="url(#paint27_radial_183_3575)"/>
<path d="M34.5 412C35.8807 412 37 413.119 37 414.5C37 415.881 35.8807 417 34.5 417C33.1193 417 32 415.881 32 414.5C32 413.119 33.1193 412 34.5 412Z" fill="url(#paint28_radial_183_3575)"/>
<path d="M34.5 421C35.8807 421 37 422.119 37 423.5C37 424.881 35.8807 426 34.5 426C33.1193 426 32 424.881 32 423.5C32 422.119 33.1193 421 34.5 421Z" fill="url(#paint29_radial_183_3575)"/>
<defs>
<radialGradient id="paint0_radial_183_3575" cx="0" cy="0" r="1" gradientUnits="userSpaceOnUse" gradientTransform="translate(34.5 80.5) rotate(180) scale(2.5)">
<stop stop-color="#325FE8" stop-opacity="0"/>
<stop offset="1" stop-color="#325FE8"/>
</radialGradient>
<radialGradient id="paint1_radial_183_3575" cx="0" cy="0" r="1" gradientUnits="userSpaceOnUse" gradientTransform="translate(34.5 89.5) rotate(180) scale(2.5)">
<stop stop-color="#325FE8" stop-opacity="0"/>
<stop offset="1" stop-color="#325FE8"/>
</radialGradient>
<radialGradient id="paint2_radial_183_3575" cx="0" cy="0" r="1" gradientUnits="userSpaceOnUse" gradientTransform="translate(34.5 98.5) rotate(180) scale(2.5)">
<stop stop-color="#325FE8" stop-opacity="0"/>
<stop offset="1" stop-color="#325FE8"/>
</radialGradient>
<radialGradient id="paint3_radial_183_3575" cx="0" cy="0" r="1" gradientUnits="userSpaceOnUse" gradientTransform="translate(34.5 107.5) rotate(180) scale(2.5)">
<stop stop-color="#325FE8" stop-opacity="0"/>
<stop offset="1" stop-color="#325FE8"/>
</radialGradient>
<radialGradient id="paint4_radial_183_3575" cx="0" cy="0" r="1" gradientUnits="userSpaceOnUse" gradientTransform="translate(34.5 116.5) rotate(180) scale(2.5)">
<stop stop-color="#325FE8" stop-opacity="0"/>
<stop offset="1" stop-color="#325FE8"/>
</radialGradient>
<radialGradient id="paint5_radial_183_3575" cx="0" cy="0" r="1" gradientUnits="userSpaceOnUse" gradientTransform="translate(34.5 125.5) rotate(180) scale(2.5)">
<stop stop-color="#325FE8" stop-opacity="0"/>
<stop offset="1" stop-color="#325FE8"/>
</radialGradient>
<radialGradient id="paint6_radial_183_3575" cx="0" cy="0" r="1" gradientUnits="userSpaceOnUse" gradientTransform="translate(34.5 134.5) rotate(180) scale(2.5)">
<stop stop-color="#325FE8" stop-opacity="0"/>
<stop offset="1" stop-color="#325FE8"/>
</radialGradient>
<radialGradient id="paint7_radial_183_3575" cx="0" cy="0" r="1" gradientUnits="userSpaceOnUse" gradientTransform="translate(34.5 143.5) rotate(180) scale(2.5)">
<stop stop-color="#325FE8" stop-opacity="0"/>
<stop offset="1" stop-color="#325FE8"/>
</radialGradient>
<radialGradient id="paint8_radial_183_3575" cx="0" cy="0" r="1" gradientUnits="userSpaceOnUse" gradientTransform="translate(34.5 152.5) rotate(180) scale(2.5)">
<stop stop-color="#325FE8" stop-opacity="0"/>
<stop offset="1" stop-color="#325FE8"/>
</radialGradient>
<radialGradient id="paint9_radial_183_3575" cx="0" cy="0" r="1" gradientUnits="userSpaceOnUse" gradientTransform="translate(34.5 161.5) rotate(180) scale(2.5)">
<stop stop-color="#325FE8" stop-opacity="0"/>
<stop offset="1" stop-color="#325FE8"/>
</radialGradient>
<radialGradient id="paint10_radial_183_3575" cx="0" cy="0" r="1" gradientUnits="userSpaceOnUse" gradientTransform="translate(34.5 170.5) rotate(180) scale(2.5)">
<stop stop-color="#325FE8" stop-opacity="0"/>
<stop offset="1" stop-color="#325FE8"/>
</radialGradient>
<radialGradient id="paint11_radial_183_3575" cx="0" cy="0" r="1" gradientUnits="userSpaceOnUse" gradientTransform="translate(34.5 179.5) rotate(180) scale(2.5)">
<stop stop-color="#325FE8" stop-opacity="0"/>
<stop offset="1" stop-color="#325FE8"/>
</radialGradient>
<radialGradient id="paint12_radial_183_3575" cx="0" cy="0" r="1" gradientUnits="userSpaceOnUse" gradientTransform="translate(34.5 188.5) rotate(180) scale(2.5)">
<stop stop-color="#325FE8" stop-opacity="0"/>
<stop offset="1" stop-color="#325FE8"/>
</radialGradient>
<radialGradient id="paint13_radial_183_3575" cx="0" cy="0" r="1" gradientUnits="userSpaceOnUse" gradientTransform="translate(34.5 197.5) rotate(180) scale(2.5)">
<stop stop-color="#325FE8" stop-opacity="0"/>
<stop offset="1" stop-color="#325FE8"/>
</radialGradient>
<radialGradient id="paint14_radial_183_3575" cx="0" cy="0" r="1" gradientUnits="userSpaceOnUse" gradientTransform="translate(34.5 206.5) rotate(180) scale(2.5)">
<stop stop-color="#325FE8" stop-opacity="0"/>
<stop offset="1" stop-color="#325FE8"/>
</radialGradient>
<radialGradient id="paint15_radial_183_3575" cx="0" cy="0" r="1" gradientUnits="userSpaceOnUse" gradientTransform="translate(34.5 297.5) rotate(180) scale(2.5)">
<stop stop-color="#325FE8" stop-opacity="0"/>
<stop offset="1" stop-color="#325FE8"/>
</radialGradient>
<radialGradient id="paint16_radial_183_3575" cx="0" cy="0" r="1" gradientUnits="userSpaceOnUse" gradientTransform="translate(34.5 306.5) rotate(180) scale(2.5)">
<stop stop-color="#325FE8" stop-opacity="0"/>
<stop offset="1" stop-color="#325FE8"/>
</radialGradient>
<radialGradient id="paint17_radial_183_3575" cx="0" cy="0" r="1" gradientUnits="userSpaceOnUse" gradientTransform="translate(34.5 315.5) rotate(180) scale(2.5)">
<stop stop-color="#325FE8" stop-opacity="0"/>
<stop offset="1" stop-color="#325FE8"/>
</radialGradient>
<radialGradient id="paint18_radial_183_3575" cx="0" cy="0" r="1" gradientUnits="userSpaceOnUse" gradientTransform="translate(34.5 324.5) rotate(180) scale(2.5)">
<stop stop-color="#325FE8" stop-opacity="0"/>
<stop offset="1" stop-color="#325FE8"/>
</radialGradient>
<radialGradient id="paint19_radial_183_3575" cx="0" cy="0" r="1" gradientUnits="userSpaceOnUse" gradientTransform="translate(34.5 333.5) rotate(180) scale(2.5)">
<stop stop-color="#325FE8" stop-opacity="0"/>
<stop offset="1" stop-color="#325FE8"/>
</radialGradient>
<radialGradient id="paint20_radial_183_3575" cx="0" cy="0" r="1" gradientUnits="userSpaceOnUse" gradientTransform="translate(34.5 342.5) rotate(180) scale(2.5)">
<stop stop-color="#325FE8" stop-opacity="0"/>
<stop offset="1" stop-color="#325FE8"/>
</radialGradient>
<radialGradient id="paint21_radial_183_3575" cx="0" cy="0" r="1" gradientUnits="userSpaceOnUse" gradientTransform="translate(34.5 351.5) rotate(180) scale(2.5)">
<stop stop-color="#325FE8" stop-opacity="0"/>
<stop offset="1" stop-color="#325FE8"/>
</radialGradient>
<radialGradient id="paint22_radial_183_3575" cx="0" cy="0" r="1" gradientUnits="userSpaceOnUse" gradientTransform="translate(34.5 360.5) rotate(180) scale(2.5)">
<stop stop-color="#325FE8" stop-opacity="0"/>
<stop offset="1" stop-color="#325FE8"/>
</radialGradient>
<radialGradient id="paint23_radial_183_3575" cx="0" cy="0" r="1" gradientUnits="userSpaceOnUse" gradientTransform="translate(34.5 369.5) rotate(180) scale(2.5)">
<stop stop-color="#325FE8" stop-opacity="0"/>
<stop offset="1" stop-color="#325FE8"/>
</radialGradient>
<radialGradient id="paint24_radial_183_3575" cx="0" cy="0" r="1" gradientUnits="userSpaceOnUse" gradientTransform="translate(34.5 378.5) rotate(180) scale(2.5)">
<stop stop-color="#325FE8" stop-opacity="0"/>
<stop offset="1" stop-color="#325FE8"/>
</radialGradient>
<radialGradient id="paint25_radial_183_3575" cx="0" cy="0" r="1" gradientUnits="userSpaceOnUse" gradientTransform="translate(34.5 387.5) rotate(180) scale(2.5)">
<stop stop-color="#325FE8" stop-opacity="0"/>
<stop offset="1" stop-color="#325FE8"/>
</radialGradient>
<radialGradient id="paint26_radial_183_3575" cx="0" cy="0" r="1" gradientUnits="userSpaceOnUse" gradientTransform="translate(34.5 396.5) rotate(180) scale(2.5)">
<stop stop-color="#325FE8" stop-opacity="0"/>
<stop offset="1" stop-color="#325FE8"/>
</radialGradient>
<radialGradient id="paint27_radial_183_3575" cx="0" cy="0" r="1" gradientUnits="userSpaceOnUse" gradientTransform="translate(34.5 405.5) rotate(180) scale(2.5)">
<stop stop-color="#325FE8" stop-opacity="0"/>
<stop offset="1" stop-color="#325FE8"/>
</radialGradient>
<radialGradient id="paint28_radial_183_3575" cx="0" cy="0" r="1" gradientUnits="userSpaceOnUse" gradientTransform="translate(34.5 414.5) rotate(180) scale(2.5)">
<stop stop-color="#325FE8" stop-opacity="0"/>
<stop offset="1" stop-color="#325FE8"/>
</radialGradient>
<radialGradient id="paint29_radial_183_3575" cx="0" cy="0" r="1" gradientUnits="userSpaceOnUse" gradientTransform="translate(34.5 423.5) rotate(180) scale(2.5)">
<stop stop-color="#325FE8" stop-opacity="0"/>
<stop offset="1" stop-color="#325FE8"/>
</radialGradient>
</defs>
</svg>
