<svg width="400" height="112" viewBox="0 0 400 112" fill="none" xmlns="http://www.w3.org/2000/svg">
<path d="M96.48 10.933H100.671V20.503H111.759V10.933H115.917V34H111.759V23.968H100.671V34H96.48V10.933ZM128.489 34.495C126.641 34.495 125.013 34.165 123.605 33.505C122.219 32.823 121.141 31.855 120.371 30.601C119.601 29.325 119.216 27.818 119.216 26.08C119.216 24.386 119.59 22.912 120.338 21.658C121.108 20.382 122.197 19.403 123.605 18.721C125.013 18.017 126.641 17.665 128.489 17.665C130.337 17.665 131.954 18.017 133.34 18.721C134.748 19.403 135.837 20.382 136.607 21.658C137.377 22.912 137.762 24.386 137.762 26.08C137.762 27.818 137.377 29.325 136.607 30.601C135.837 31.855 134.748 32.823 133.34 33.505C131.954 34.165 130.337 34.495 128.489 34.495ZM128.489 31.228C130.007 31.228 131.217 30.755 132.119 29.809C133.021 28.841 133.472 27.598 133.472 26.08C133.472 24.474 133.021 23.22 132.119 22.318C131.239 21.394 130.029 20.932 128.489 20.932C126.949 20.932 125.728 21.394 124.826 22.318C123.946 23.22 123.506 24.474 123.506 26.08C123.506 27.598 123.957 28.841 124.859 29.809C125.761 30.755 126.971 31.228 128.489 31.228ZM138.23 18.16H142.388L145.622 28.885L148.79 18.16H152.42L155.588 28.885L158.822 18.16H162.98L157.799 34H153.971L150.605 23.242L147.239 34H143.411L138.23 18.16Z" fill="#1C1C1C"/>
<path d="M164.5 46H94.5V50H164.5V46Z" fill="#1C1C1C" mask="url(#path-1-inside-1_183_3589)"/>
<path d="M174.48 11.933H178.671V35H174.48V11.933ZM189.002 35.495C187.264 35.495 185.944 35.011 185.042 34.043C184.14 33.075 183.689 31.711 183.689 29.951V22.328H181.313V19.16H183.689V14.408H187.847V19.16H191.642V22.328H187.847V29.423C187.847 30.435 188.034 31.161 188.408 31.601C188.782 32.019 189.464 32.228 190.454 32.228C191.136 32.228 191.807 32.074 192.467 31.766V34.934C191.521 35.308 190.366 35.495 189.002 35.495ZM206.659 11.933H211.015L215.602 28.235L220.123 11.933H223.357L227.878 28.235L232.465 11.933H236.821L230.254 35H226.36L221.74 18.962L217.12 35H213.226L206.659 11.933ZM246.257 35.495C244.409 35.495 242.781 35.165 241.373 34.505C239.987 33.823 238.909 32.855 238.139 31.601C237.369 30.325 236.984 28.818 236.984 27.08C236.984 25.386 237.358 23.912 238.106 22.658C238.876 21.382 239.965 20.403 241.373 19.721C242.781 19.017 244.409 18.665 246.257 18.665C248.105 18.665 249.722 19.017 251.108 19.721C252.516 20.403 253.605 21.382 254.375 22.658C255.145 23.912 255.53 25.386 255.53 27.08C255.53 28.818 255.145 30.325 254.375 31.601C253.605 32.855 252.516 33.823 251.108 34.505C249.722 35.165 248.105 35.495 246.257 35.495ZM246.257 32.228C247.775 32.228 248.985 31.755 249.887 30.809C250.789 29.841 251.24 28.598 251.24 27.08C251.24 25.474 250.789 24.22 249.887 23.318C249.007 22.394 247.797 21.932 246.257 21.932C244.717 21.932 243.496 22.394 242.594 23.318C241.714 24.22 241.274 25.474 241.274 27.08C241.274 28.598 241.725 29.841 242.627 30.809C243.529 31.755 244.739 32.228 246.257 32.228ZM258.817 19.16H262.843V21.701C263.481 20.843 264.383 20.205 265.549 19.787C266.737 19.369 268.09 19.16 269.608 19.16V22.328C268.002 22.328 266.605 22.581 265.417 23.087C264.251 23.571 263.437 24.341 262.975 25.397V35H258.817V19.16ZM272.255 10.613H276.413V26.123L282.716 19.16H287.6L280.538 26.915L288.392 35H283.508L276.413 27.674V35H272.255V10.613ZM296.699 35.495C295.555 35.495 294.334 35.363 293.036 35.099C291.738 34.835 290.726 34.472 290 34.01V30.479C290.858 31.007 291.881 31.436 293.069 31.766C294.257 32.074 295.379 32.228 296.435 32.228C297.491 32.228 298.261 32.14 298.745 31.964C299.229 31.766 299.471 31.414 299.471 30.908C299.471 30.512 299.339 30.193 299.075 29.951C298.833 29.687 298.426 29.456 297.854 29.258C297.304 29.038 296.446 28.774 295.28 28.466C293.96 28.092 292.915 27.707 292.145 27.311C291.397 26.915 290.825 26.42 290.429 25.826C290.055 25.21 289.868 24.418 289.868 23.45C289.868 21.866 290.495 20.678 291.749 19.886C293.003 19.072 294.697 18.665 296.831 18.665C297.931 18.665 299.02 18.775 300.098 18.995C301.198 19.193 302.056 19.479 302.672 19.853V23.252C302.012 22.856 301.209 22.537 300.263 22.295C299.317 22.053 298.349 21.932 297.359 21.932C296.281 21.932 295.467 22.042 294.917 22.262C294.367 22.46 294.092 22.856 294.092 23.45C294.092 23.846 294.235 24.165 294.521 24.407C294.829 24.627 295.225 24.825 295.709 25.001C296.193 25.155 297.073 25.397 298.349 25.727C299.713 26.101 300.78 26.508 301.55 26.948C302.32 27.388 302.87 27.916 303.2 28.532C303.53 29.148 303.695 29.918 303.695 30.842C303.695 32.25 303.09 33.383 301.88 34.241C300.692 35.077 298.965 35.495 296.699 35.495Z" fill="#1C1C1C"/>
<path d="M3.146 72.031H0.325V70.913H7.306V72.031H4.485V80H3.146V72.031ZM8.47488 70.393H9.78788V74.618C10.3859 73.916 11.1832 73.565 12.1799 73.565C13.0119 73.565 13.6315 73.786 14.0389 74.228C14.4462 74.67 14.6499 75.2637 14.6499 76.009V80H13.3369V76.139C13.3369 75.125 12.8515 74.618 11.8809 74.618C11.4649 74.618 11.0749 74.7177 10.7109 74.917C10.3555 75.1077 10.0479 75.4023 9.78788 75.801V80H8.47488V70.393ZM17.0368 72.538C16.8201 72.538 16.6381 72.4643 16.4908 72.317C16.3435 72.1697 16.2698 71.9877 16.2698 71.771C16.2698 71.5543 16.3435 71.3723 16.4908 71.225C16.6381 71.0777 16.8201 71.004 17.0368 71.004C17.2621 71.004 17.4485 71.0777 17.5958 71.225C17.7518 71.3723 17.8298 71.5543 17.8298 71.771C17.8298 71.9877 17.7518 72.1697 17.5958 72.317C17.4485 72.4643 17.2621 72.538 17.0368 72.538ZM16.3738 73.76H17.7128V80H16.3738V73.76ZM21.8208 80.195C21.3875 80.195 20.9281 80.1387 20.4428 80.026C19.9575 79.922 19.5761 79.779 19.2988 79.597V78.479C19.6368 78.6783 20.0268 78.843 20.4688 78.973C20.9108 79.0943 21.3398 79.155 21.7558 79.155C22.2238 79.155 22.5661 79.0987 22.7828 78.986C22.9995 78.8733 23.1078 78.6913 23.1078 78.44C23.1078 78.2493 23.0558 78.0977 22.9518 77.985C22.8565 77.8637 22.6875 77.7553 22.4448 77.66C22.2108 77.5647 21.8555 77.452 21.3788 77.322C20.8675 77.1747 20.4601 77.0273 20.1568 76.88C19.8621 76.724 19.6368 76.529 19.4808 76.295C19.3335 76.061 19.2598 75.7577 19.2598 75.385C19.2598 74.787 19.4938 74.3363 19.9618 74.033C20.4385 73.721 21.0755 73.565 21.8728 73.565C22.2888 73.565 22.6961 73.604 23.0948 73.682C23.4935 73.76 23.8141 73.8683 24.0568 74.007V75.099C23.8055 74.9517 23.4935 74.8347 23.1208 74.748C22.7568 74.6613 22.3841 74.618 22.0028 74.618C21.5435 74.618 21.1925 74.6743 20.9498 74.787C20.7071 74.8997 20.5858 75.099 20.5858 75.385C20.5858 75.567 20.6378 75.7143 20.7418 75.827C20.8458 75.9397 21.0105 76.0393 21.2358 76.126C21.4698 76.204 21.8381 76.308 22.3408 76.438C23.1295 76.6547 23.6755 76.9103 23.9788 77.205C24.2908 77.4997 24.4468 77.907 24.4468 78.427C24.4468 78.9643 24.2258 79.3933 23.7838 79.714C23.3418 80.0347 22.6875 80.195 21.8208 80.195ZM30.6917 70.393H32.0047V74.618C32.6027 73.916 33.4 73.565 34.3967 73.565C35.2287 73.565 35.8483 73.786 36.2557 74.228C36.663 74.67 36.8667 75.2637 36.8667 76.009V80H35.5537V76.139C35.5537 75.125 35.0683 74.618 34.0977 74.618C33.6817 74.618 33.2917 74.7177 32.9277 74.917C32.5723 75.1077 32.2647 75.4023 32.0047 75.801V80H30.6917V70.393ZM39.2536 72.538C39.0369 72.538 38.8549 72.4643 38.7076 72.317C38.5603 72.1697 38.4866 71.9877 38.4866 71.771C38.4866 71.5543 38.5603 71.3723 38.7076 71.225C38.8549 71.0777 39.0369 71.004 39.2536 71.004C39.4789 71.004 39.6653 71.0777 39.8126 71.225C39.9686 71.3723 40.0466 71.5543 40.0466 71.771C40.0466 71.9877 39.9686 72.1697 39.8126 72.317C39.6653 72.4643 39.4789 72.538 39.2536 72.538ZM38.5906 73.76H39.9296V80H38.5906V73.76ZM44.9996 82.99C44.5749 82.99 44.1589 82.9553 43.7516 82.886C43.3529 82.8167 43.0149 82.717 42.7376 82.587V81.508C43.3876 81.8027 44.1416 81.95 44.9996 81.95C45.8056 81.95 46.3906 81.7723 46.7546 81.417C47.1273 81.0703 47.3136 80.5417 47.3136 79.831V79.168C46.7416 79.8527 45.9009 80.195 44.7916 80.195C44.1589 80.195 43.5913 80.0563 43.0886 79.779C42.5859 79.5017 42.1916 79.1117 41.9056 78.609C41.6196 78.1063 41.4766 77.53 41.4766 76.88C41.4766 76.2213 41.6153 75.645 41.8926 75.151C42.1786 74.6483 42.5686 74.2583 43.0626 73.981C43.5653 73.7037 44.1286 73.565 44.7526 73.565C45.3333 73.565 45.8229 73.6517 46.2216 73.825C46.6289 73.9897 47.0059 74.267 47.3526 74.657V73.76H48.6266V79.688C48.6266 80.754 48.3276 81.5687 47.7296 82.132C47.1403 82.704 46.2303 82.99 44.9996 82.99ZM45.0516 79.155C45.5889 79.155 46.0613 79.012 46.4686 78.726C46.8846 78.44 47.1663 78.0587 47.3136 77.582V76.178C47.1489 75.6927 46.8629 75.3113 46.4556 75.034C46.0569 74.7567 45.5889 74.618 45.0516 74.618C44.6269 74.618 44.2413 74.7133 43.8946 74.904C43.5566 75.086 43.2879 75.3503 43.0886 75.697C42.8979 76.0437 42.8026 76.438 42.8026 76.88C42.8026 77.3307 42.8979 77.7293 43.0886 78.076C43.2879 78.414 43.5566 78.6783 43.8946 78.869C44.2413 79.0597 44.6269 79.155 45.0516 79.155ZM50.3186 70.393H51.6316V74.618C52.2296 73.916 53.027 73.565 54.0236 73.565C54.8556 73.565 55.4753 73.786 55.8826 74.228C56.29 74.67 56.4936 75.2637 56.4936 76.009V80H55.1806V76.139C55.1806 75.125 54.6953 74.618 53.7246 74.618C53.3086 74.618 52.9186 74.7177 52.5546 74.917C52.1993 75.1077 51.8916 75.4023 51.6316 75.801V80H50.3186V70.393ZM58.1136 70.393H59.4266V80H58.1136V70.393ZM61.8893 72.538C61.6727 72.538 61.4907 72.4643 61.3433 72.317C61.196 72.1697 61.1223 71.9877 61.1223 71.771C61.1223 71.5543 61.196 71.3723 61.3433 71.225C61.4907 71.0777 61.6727 71.004 61.8893 71.004C62.1147 71.004 62.301 71.0777 62.4483 71.225C62.6043 71.3723 62.6823 71.5543 62.6823 71.771C62.6823 71.9877 62.6043 72.1697 62.4483 72.317C62.301 72.4643 62.1147 72.538 61.8893 72.538ZM61.2263 73.76H62.5653V80H61.2263V73.76ZM67.6353 82.99C67.2107 82.99 66.7947 82.9553 66.3873 82.886C65.9887 82.8167 65.6507 82.717 65.3733 82.587V81.508C66.0233 81.8027 66.7773 81.95 67.6353 81.95C68.4413 81.95 69.0263 81.7723 69.3903 81.417C69.763 81.0703 69.9493 80.5417 69.9493 79.831V79.168C69.3773 79.8527 68.5367 80.195 67.4273 80.195C66.7947 80.195 66.227 80.0563 65.7243 79.779C65.2217 79.5017 64.8273 79.1117 64.5413 78.609C64.2553 78.1063 64.1123 77.53 64.1123 76.88C64.1123 76.2213 64.251 75.645 64.5283 75.151C64.8143 74.6483 65.2043 74.2583 65.6983 73.981C66.201 73.7037 66.7643 73.565 67.3883 73.565C67.969 73.565 68.4587 73.6517 68.8573 73.825C69.2647 73.9897 69.6417 74.267 69.9883 74.657V73.76H71.2623V79.688C71.2623 80.754 70.9633 81.5687 70.3653 82.132C69.776 82.704 68.866 82.99 67.6353 82.99ZM67.6873 79.155C68.2247 79.155 68.697 79.012 69.1043 78.726C69.5203 78.44 69.802 78.0587 69.9493 77.582V76.178C69.7847 75.6927 69.4987 75.3113 69.0913 75.034C68.6927 74.7567 68.2247 74.618 67.6873 74.618C67.2627 74.618 66.877 74.7133 66.5303 74.904C66.1923 75.086 65.9237 75.3503 65.7243 75.697C65.5337 76.0437 65.4383 76.438 65.4383 76.88C65.4383 77.3307 65.5337 77.7293 65.7243 78.076C65.9237 78.414 66.1923 78.6783 66.5303 78.869C66.877 79.0597 67.2627 79.155 67.6873 79.155ZM72.9544 70.393H74.2674V74.618C74.8654 73.916 75.6627 73.565 76.6594 73.565C77.4914 73.565 78.111 73.786 78.5184 74.228C78.9257 74.67 79.1294 75.2637 79.1294 76.009V80H77.8164V76.139C77.8164 75.125 77.331 74.618 76.3604 74.618C75.9444 74.618 75.5544 74.7177 75.1904 74.917C74.835 75.1077 74.5274 75.4023 74.2674 75.801V80H72.9544V70.393ZM83.1543 80.195C82.5216 80.195 82.032 80.013 81.6853 79.649C81.3473 79.285 81.1783 78.7693 81.1783 78.102V74.774H80.2293V73.76H81.1783V71.888H82.5043V73.76H84.0383V74.774H82.5043V78.011C82.5043 78.427 82.5823 78.7217 82.7383 78.895C82.903 79.0683 83.1976 79.155 83.6223 79.155C83.8736 79.155 84.125 79.0987 84.3763 78.986V80.026C84.047 80.1387 83.6396 80.195 83.1543 80.195ZM87.6587 80.195C87.2254 80.195 86.766 80.1387 86.2807 80.026C85.7954 79.922 85.414 79.779 85.1367 79.597V78.479C85.4747 78.6783 85.8647 78.843 86.3067 78.973C86.7487 79.0943 87.1777 79.155 87.5937 79.155C88.0617 79.155 88.404 79.0987 88.6207 78.986C88.8374 78.8733 88.9457 78.6913 88.9457 78.44C88.9457 78.2493 88.8937 78.0977 88.7897 77.985C88.6944 77.8637 88.5254 77.7553 88.2827 77.66C88.0487 77.5647 87.6934 77.452 87.2167 77.322C86.7054 77.1747 86.298 77.0273 85.9947 76.88C85.7 76.724 85.4747 76.529 85.3187 76.295C85.1714 76.061 85.0977 75.7577 85.0977 75.385C85.0977 74.787 85.3317 74.3363 85.7997 74.033C86.2764 73.721 86.9134 73.565 87.7107 73.565C88.1267 73.565 88.534 73.604 88.9327 73.682C89.3314 73.76 89.652 73.8683 89.8947 74.007V75.099C89.6434 74.9517 89.3314 74.8347 88.9587 74.748C88.5947 74.6613 88.222 74.618 87.8407 74.618C87.3814 74.618 87.0304 74.6743 86.7877 74.787C86.545 74.8997 86.4237 75.099 86.4237 75.385C86.4237 75.567 86.4757 75.7143 86.5797 75.827C86.6837 75.9397 86.8484 76.0393 87.0737 76.126C87.3077 76.204 87.676 76.308 88.1787 76.438C88.9674 76.6547 89.5134 76.9103 89.8167 77.205C90.1287 77.4997 90.2847 77.907 90.2847 78.427C90.2847 78.9643 90.0637 79.3933 89.6217 79.714C89.1797 80.0347 88.5254 80.195 87.6587 80.195ZM98.9346 80.195C98.3019 80.195 97.8122 80.013 97.4656 79.649C97.1276 79.285 96.9586 78.7693 96.9586 78.102V74.774H96.0096V73.76H96.9586V71.888H98.2846V73.76H99.8186V74.774H98.2846V78.011C98.2846 78.427 98.3626 78.7217 98.5186 78.895C98.6832 79.0683 98.9779 79.155 99.4026 79.155C99.6539 79.155 99.9052 79.0987 100.157 78.986V80.026C99.8272 80.1387 99.4199 80.195 98.9346 80.195ZM101.392 70.393H102.705V74.618C103.303 73.916 104.1 73.565 105.097 73.565C105.929 73.565 106.549 73.786 106.956 74.228C107.363 74.67 107.567 75.2637 107.567 76.009V80H106.254V76.139C106.254 75.125 105.769 74.618 104.798 74.618C104.382 74.618 103.992 74.7177 103.628 74.917C103.273 75.1077 102.965 75.4023 102.705 75.801V80H101.392V70.393ZM112.619 80.195C111.466 80.195 110.56 79.909 109.902 79.337C109.252 78.7563 108.927 77.9417 108.927 76.893C108.927 75.8703 109.217 75.06 109.798 74.462C110.387 73.864 111.223 73.565 112.307 73.565C113.026 73.565 113.637 73.7037 114.14 73.981C114.642 74.2497 115.019 74.6267 115.271 75.112C115.531 75.5887 115.661 76.1347 115.661 76.75V77.4H110.175C110.218 77.9893 110.465 78.4313 110.916 78.726C111.375 79.012 111.995 79.155 112.775 79.155C113.173 79.155 113.576 79.1203 113.984 79.051C114.391 78.973 114.751 78.8733 115.063 78.752V79.805C114.785 79.9177 114.417 80.0087 113.958 80.078C113.507 80.156 113.061 80.195 112.619 80.195ZM114.426 76.477C114.408 75.8877 114.213 75.4327 113.841 75.112C113.477 74.7827 112.957 74.618 112.281 74.618C111.622 74.618 111.111 74.787 110.747 75.125C110.383 75.463 110.192 75.9137 110.175 76.477H114.426ZM121.908 70.393H123.221V80H121.908V70.393ZM123.234 76.841L126.107 73.76H127.706L124.82 76.841L128.005 80H126.406L123.234 76.841ZM132.741 80.195C131.588 80.195 130.683 79.909 130.024 79.337C129.374 78.7563 129.049 77.9417 129.049 76.893C129.049 75.8703 129.339 75.06 129.92 74.462C130.509 73.864 131.346 73.565 132.429 73.565C133.148 73.565 133.759 73.7037 134.262 73.981C134.765 74.2497 135.142 74.6267 135.393 75.112C135.653 75.5887 135.783 76.1347 135.783 76.75V77.4H130.297C130.34 77.9893 130.587 78.4313 131.038 78.726C131.497 79.012 132.117 79.155 132.897 79.155C133.296 79.155 133.699 79.1203 134.106 79.051C134.513 78.973 134.873 78.8733 135.185 78.752V79.805C134.908 79.9177 134.539 80.0087 134.08 80.078C133.629 80.156 133.183 80.195 132.741 80.195ZM134.548 76.477C134.531 75.8877 134.336 75.4327 133.963 75.112C133.599 74.7827 133.079 74.618 132.403 74.618C131.744 74.618 131.233 74.787 130.869 75.125C130.505 75.463 130.314 75.9137 130.297 76.477H134.548ZM138.15 82.574C137.682 82.574 137.292 82.5263 136.98 82.431V81.404C137.206 81.4907 137.483 81.534 137.812 81.534C138.116 81.534 138.354 81.456 138.527 81.3C138.701 81.1527 138.857 80.91 138.995 80.572L139.294 79.844L136.564 73.76H137.916L139.996 78.557L141.933 73.76H143.285L140.477 80.702C140.217 81.352 139.905 81.8243 139.541 82.119C139.186 82.4223 138.722 82.574 138.15 82.574ZM149.695 74.774H148.746V73.76H149.695V72.538C149.695 71.8187 149.899 71.2727 150.306 70.9C150.713 70.5187 151.259 70.328 151.944 70.328C152.299 70.328 152.633 70.38 152.945 70.484V71.576C152.702 71.4633 152.451 71.407 152.191 71.407C151.784 71.407 151.485 71.5067 151.294 71.706C151.103 71.8967 151.008 72.2 151.008 72.616V73.76H152.568V74.774H151.008V80H149.695V74.774ZM155.621 80.195C154.78 80.195 154.143 79.9697 153.71 79.519C153.285 79.0683 153.073 78.466 153.073 77.712V73.76H154.386V77.66C154.386 78.6567 154.884 79.155 155.881 79.155C156.756 79.155 157.441 78.7607 157.935 77.972V73.76H159.248V80H157.974V79.116C157.679 79.4887 157.328 79.7617 156.921 79.935C156.522 80.1083 156.089 80.195 155.621 80.195ZM160.933 73.76H162.207V74.657C162.502 74.2843 162.861 74.0113 163.286 73.838C163.719 73.656 164.17 73.565 164.638 73.565C165.47 73.565 166.09 73.786 166.497 74.228C166.904 74.67 167.108 75.2637 167.108 76.009V80H165.795V76.139C165.795 75.125 165.31 74.618 164.339 74.618C163.923 74.618 163.533 74.7177 163.169 74.917C162.814 75.1077 162.506 75.4023 162.246 75.801V80H160.933V73.76ZM172.017 80.195C171.323 80.195 170.708 80.065 170.171 79.805C169.633 79.545 169.213 79.168 168.91 78.674C168.615 78.1713 168.468 77.5777 168.468 76.893C168.468 76.2083 168.615 75.619 168.91 75.125C169.213 74.6223 169.633 74.2367 170.171 73.968C170.717 73.6993 171.341 73.565 172.043 73.565C172.996 73.565 173.759 73.7513 174.331 74.124V75.203C173.767 74.813 173.048 74.618 172.173 74.618C171.462 74.618 170.886 74.813 170.444 75.203C170.01 75.5843 169.794 76.1477 169.794 76.893C169.794 77.6383 170.01 78.2017 170.444 78.583C170.877 78.9643 171.445 79.155 172.147 79.155C173.022 79.155 173.776 78.947 174.409 78.531V79.597C174.105 79.805 173.759 79.9567 173.369 80.052C172.987 80.1473 172.537 80.195 172.017 80.195ZM178.242 80.195C177.61 80.195 177.12 80.013 176.773 79.649C176.435 79.285 176.266 78.7693 176.266 78.102V74.774H175.317V73.76H176.266V71.888H177.592V73.76H179.126V74.774H177.592V78.011C177.592 78.427 177.67 78.7217 177.826 78.895C177.991 79.0683 178.286 79.155 178.71 79.155C178.962 79.155 179.213 79.0987 179.464 78.986V80.026C179.135 80.1387 178.728 80.195 178.242 80.195ZM181.466 72.538C181.25 72.538 181.068 72.4643 180.92 72.317C180.773 72.1697 180.699 71.9877 180.699 71.771C180.699 71.5543 180.773 71.3723 180.92 71.225C181.068 71.0777 181.25 71.004 181.466 71.004C181.692 71.004 181.878 71.0777 182.025 71.225C182.181 71.3723 182.259 71.5543 182.259 71.771C182.259 71.9877 182.181 72.1697 182.025 72.317C181.878 72.4643 181.692 72.538 181.466 72.538ZM180.803 73.76H182.142V80H180.803V73.76ZM187.238 80.195C186.536 80.195 185.917 80.065 185.379 79.805C184.851 79.5363 184.435 79.155 184.131 78.661C183.837 78.1583 183.689 77.569 183.689 76.893C183.689 76.2257 183.837 75.6407 184.131 75.138C184.426 74.6353 184.842 74.2497 185.379 73.981C185.917 73.7037 186.536 73.565 187.238 73.565C187.94 73.565 188.56 73.7037 189.097 73.981C189.635 74.2497 190.051 74.6353 190.345 75.138C190.649 75.6407 190.8 76.2257 190.8 76.893C190.8 77.569 190.649 78.1583 190.345 78.661C190.051 79.155 189.635 79.5363 189.097 79.805C188.56 80.065 187.94 80.195 187.238 80.195ZM187.238 79.155C187.914 79.155 188.452 78.947 188.85 78.531C189.249 78.115 189.448 77.569 189.448 76.893C189.448 76.191 189.249 75.6363 188.85 75.229C188.452 74.8217 187.914 74.618 187.238 74.618C186.562 74.618 186.025 74.8217 185.626 75.229C185.228 75.6363 185.028 76.191 185.028 76.893C185.028 77.569 185.228 78.115 185.626 78.531C186.025 78.947 186.562 79.155 187.238 79.155ZM192.227 73.76H193.501V74.657C193.796 74.2843 194.155 74.0113 194.58 73.838C195.013 73.656 195.464 73.565 195.932 73.565C196.764 73.565 197.384 73.786 197.791 74.228C198.198 74.67 198.402 75.2637 198.402 76.009V80H197.089V76.139C197.089 75.125 196.604 74.618 195.633 74.618C195.217 74.618 194.827 74.7177 194.463 74.917C194.108 75.1077 193.8 75.4023 193.54 75.801V80H192.227V73.76ZM202.067 80.195C201.313 80.195 200.707 80.0043 200.247 79.623C199.797 79.233 199.571 78.7087 199.571 78.05C199.571 77.3567 199.788 76.8237 200.221 76.451C200.663 76.0697 201.287 75.879 202.093 75.879C202.951 75.879 203.679 76.0523 204.277 76.399V76.074C204.277 75.58 204.126 75.216 203.822 74.982C203.528 74.7393 203.06 74.618 202.418 74.618C202.037 74.618 201.664 74.657 201.3 74.735C200.945 74.8043 200.624 74.904 200.338 75.034V73.968C200.598 73.8467 200.936 73.7513 201.352 73.682C201.768 73.604 202.171 73.565 202.561 73.565C203.593 73.565 204.355 73.7947 204.849 74.254C205.352 74.7047 205.603 75.333 205.603 76.139V80H204.368V79.298C204.1 79.5927 203.779 79.818 203.406 79.974C203.042 80.1213 202.596 80.195 202.067 80.195ZM202.392 79.194C202.808 79.194 203.185 79.1117 203.523 78.947C203.861 78.7823 204.113 78.5527 204.277 78.258V77.413C203.714 77.049 203.086 76.867 202.392 76.867C201.89 76.867 201.513 76.9667 201.261 77.166C201.019 77.3567 200.897 77.6513 200.897 78.05C200.897 78.8127 201.396 79.194 202.392 79.194ZM207.233 70.393H208.546V80H207.233V70.393ZM211.008 72.538C210.792 72.538 210.61 72.4643 210.462 72.317C210.315 72.1697 210.241 71.9877 210.241 71.771C210.241 71.5543 210.315 71.3723 210.462 71.225C210.61 71.0777 210.792 71.004 211.008 71.004C211.234 71.004 211.42 71.0777 211.567 71.225C211.723 71.3723 211.801 71.5543 211.801 71.771C211.801 71.9877 211.723 72.1697 211.567 72.317C211.42 72.4643 211.234 72.538 211.008 72.538ZM210.345 73.76H211.684V80H210.345V73.76ZM215.896 80.195C215.264 80.195 214.774 80.013 214.427 79.649C214.089 79.285 213.92 78.7693 213.92 78.102V74.774H212.971V73.76H213.92V71.888H215.246V73.76H216.78V74.774H215.246V78.011C215.246 78.427 215.324 78.7217 215.48 78.895C215.645 79.0683 215.94 79.155 216.364 79.155C216.616 79.155 216.867 79.0987 217.118 78.986V80.026C216.789 80.1387 216.382 80.195 215.896 80.195ZM219.121 72.538C218.904 72.538 218.722 72.4643 218.575 72.317C218.427 72.1697 218.354 71.9877 218.354 71.771C218.354 71.5543 218.427 71.3723 218.575 71.225C218.722 71.0777 218.904 71.004 219.121 71.004C219.346 71.004 219.532 71.0777 219.68 71.225C219.836 71.3723 219.914 71.5543 219.914 71.771C219.914 71.9877 219.836 72.1697 219.68 72.317C219.532 72.4643 219.346 72.538 219.121 72.538ZM218.458 73.76H219.797V80H218.458V73.76ZM225.036 80.195C223.883 80.195 222.977 79.909 222.319 79.337C221.669 78.7563 221.344 77.9417 221.344 76.893C221.344 75.8703 221.634 75.06 222.215 74.462C222.804 73.864 223.64 73.565 224.724 73.565C225.443 73.565 226.054 73.7037 226.557 73.981C227.059 74.2497 227.436 74.6267 227.688 75.112C227.948 75.5887 228.078 76.1347 228.078 76.75V77.4H222.592C222.635 77.9893 222.882 78.4313 223.333 78.726C223.792 79.012 224.412 79.155 225.192 79.155C225.59 79.155 225.993 79.1203 226.401 79.051C226.808 78.973 227.168 78.8733 227.48 78.752V79.805C227.202 79.9177 226.834 80.0087 226.375 80.078C225.924 80.156 225.478 80.195 225.036 80.195ZM226.843 76.477C226.825 75.8877 226.63 75.4327 226.258 75.112C225.894 74.7827 225.374 74.618 224.698 74.618C224.039 74.618 223.528 74.787 223.164 75.125C222.8 75.463 222.609 75.9137 222.592 76.477H226.843ZM231.814 80.195C231.381 80.195 230.921 80.1387 230.436 80.026C229.951 79.922 229.569 79.779 229.292 79.597V78.479C229.63 78.6783 230.02 78.843 230.462 78.973C230.904 79.0943 231.333 79.155 231.749 79.155C232.217 79.155 232.559 79.0987 232.776 78.986C232.993 78.8733 233.101 78.6913 233.101 78.44C233.101 78.2493 233.049 78.0977 232.945 77.985C232.85 77.8637 232.681 77.7553 232.438 77.66C232.204 77.5647 231.849 77.452 231.372 77.322C230.861 77.1747 230.453 77.0273 230.15 76.88C229.855 76.724 229.63 76.529 229.474 76.295C229.327 76.061 229.253 75.7577 229.253 75.385C229.253 74.787 229.487 74.3363 229.955 74.033C230.432 73.721 231.069 73.565 231.866 73.565C232.282 73.565 232.689 73.604 233.088 73.682C233.487 73.76 233.807 73.8683 234.05 74.007V75.099C233.799 74.9517 233.487 74.8347 233.114 74.748C232.75 74.6613 232.377 74.618 231.996 74.618C231.537 74.618 231.186 74.6743 230.943 74.787C230.7 74.8997 230.579 75.099 230.579 75.385C230.579 75.567 230.631 75.7143 230.735 75.827C230.839 75.9397 231.004 76.0393 231.229 76.126C231.463 76.204 231.831 76.308 232.334 76.438C233.123 76.6547 233.669 76.9103 233.972 77.205C234.284 77.4997 234.44 77.907 234.44 78.427C234.44 78.9643 234.219 79.3933 233.777 79.714C233.335 80.0347 232.681 80.195 231.814 80.195ZM243.09 80.195C242.457 80.195 241.968 80.013 241.621 79.649C241.283 79.285 241.114 78.7693 241.114 78.102V74.774H240.165V73.76H241.114V71.888H242.44V73.76H243.974V74.774H242.44V78.011C242.44 78.427 242.518 78.7217 242.674 78.895C242.839 79.0683 243.133 79.155 243.558 79.155C243.809 79.155 244.061 79.0987 244.312 78.986V80.026C243.983 80.1387 243.575 80.195 243.09 80.195ZM245.547 70.393H246.86V74.618C247.458 73.916 248.255 73.565 249.252 73.565C250.084 73.565 250.704 73.786 251.111 74.228C251.518 74.67 251.722 75.2637 251.722 76.009V80H250.409V76.139C250.409 75.125 249.924 74.618 248.953 74.618C248.537 74.618 248.147 74.7177 247.783 74.917C247.428 75.1077 247.12 75.4023 246.86 75.801V80H245.547V70.393ZM255.388 80.195C254.634 80.195 254.027 80.0043 253.568 79.623C253.117 79.233 252.892 78.7087 252.892 78.05C252.892 77.3567 253.108 76.8237 253.542 76.451C253.984 76.0697 254.608 75.879 255.414 75.879C256.272 75.879 257 76.0523 257.598 76.399V76.074C257.598 75.58 257.446 75.216 257.143 74.982C256.848 74.7393 256.38 74.618 255.739 74.618C255.357 74.618 254.985 74.657 254.621 74.735C254.265 74.8043 253.945 74.904 253.659 75.034V73.968C253.919 73.8467 254.257 73.7513 254.673 73.682C255.089 73.604 255.492 73.565 255.882 73.565C256.913 73.565 257.676 73.7947 258.17 74.254C258.672 74.7047 258.924 75.333 258.924 76.139V80H257.689V79.298C257.42 79.5927 257.099 79.818 256.727 79.974C256.363 80.1213 255.916 80.195 255.388 80.195ZM255.713 79.194C256.129 79.194 256.506 79.1117 256.844 78.947C257.182 78.7823 257.433 78.5527 257.598 78.258V77.413C257.034 77.049 256.406 76.867 255.713 76.867C255.21 76.867 254.833 76.9667 254.582 77.166C254.339 77.3567 254.218 77.6513 254.218 78.05C254.218 78.8127 254.716 79.194 255.713 79.194ZM262.628 80.195C261.995 80.195 261.506 80.013 261.159 79.649C260.821 79.285 260.652 78.7693 260.652 78.102V74.774H259.703V73.76H260.652V71.888H261.978V73.76H263.512V74.774H261.978V78.011C261.978 78.427 262.056 78.7217 262.212 78.895C262.377 79.0683 262.671 79.155 263.096 79.155C263.347 79.155 263.599 79.0987 263.85 78.986V80.026C263.521 80.1387 263.113 80.195 262.628 80.195ZM269.897 73.76H271.145V74.657C271.439 74.293 271.773 74.02 272.146 73.838C272.518 73.656 272.904 73.565 273.303 73.565C273.805 73.565 274.204 73.6517 274.499 73.825C274.793 73.9897 275.01 74.2453 275.149 74.592C275.426 74.254 275.764 73.9983 276.163 73.825C276.57 73.6517 276.977 73.565 277.385 73.565C278.147 73.565 278.698 73.76 279.036 74.15C279.374 74.5313 279.543 75.099 279.543 75.853V80H278.269V76.022C278.269 75.5107 278.173 75.151 277.983 74.943C277.792 74.7263 277.467 74.618 277.008 74.618C276.349 74.618 275.812 74.904 275.396 75.476C275.413 75.606 275.422 75.8183 275.422 76.113V80H274.148V76.022C274.148 75.5107 274.061 75.151 273.888 74.943C273.714 74.7263 273.402 74.618 272.952 74.618C272.293 74.618 271.704 74.9907 271.184 75.736V80H269.897V73.76ZM283.216 80.195C282.462 80.195 281.855 80.0043 281.396 79.623C280.945 79.233 280.72 78.7087 280.72 78.05C280.72 77.3567 280.936 76.8237 281.37 76.451C281.812 76.0697 282.436 75.879 283.242 75.879C284.1 75.879 284.828 76.0523 285.426 76.399V76.074C285.426 75.58 285.274 75.216 284.971 74.982C284.676 74.7393 284.208 74.618 283.567 74.618C283.185 74.618 282.813 74.657 282.449 74.735C282.093 74.8043 281.773 74.904 281.487 75.034V73.968C281.747 73.8467 282.085 73.7513 282.501 73.682C282.917 73.604 283.32 73.565 283.71 73.565C284.741 73.565 285.504 73.7947 285.998 74.254C286.5 74.7047 286.752 75.333 286.752 76.139V80H285.517V79.298C285.248 79.5927 284.927 79.818 284.555 79.974C284.191 80.1213 283.744 80.195 283.216 80.195ZM283.541 79.194C283.957 79.194 284.334 79.1117 284.672 78.947C285.01 78.7823 285.261 78.5527 285.426 78.258V77.413C284.862 77.049 284.234 76.867 283.541 76.867C283.038 76.867 282.661 76.9667 282.41 77.166C282.167 77.3567 282.046 77.6513 282.046 78.05C282.046 78.8127 282.544 79.194 283.541 79.194ZM288.381 70.393H289.694V80H288.381V70.393ZM289.707 76.841L292.58 73.76H294.179L291.293 76.841L294.478 80H292.879L289.707 76.841ZM299.215 80.195C298.062 80.195 297.156 79.909 296.498 79.337C295.848 78.7563 295.523 77.9417 295.523 76.893C295.523 75.8703 295.813 75.06 296.394 74.462C296.983 73.864 297.819 73.565 298.903 73.565C299.622 73.565 300.233 73.7037 300.736 73.981C301.238 74.2497 301.615 74.6267 301.867 75.112C302.127 75.5887 302.257 76.1347 302.257 76.75V77.4H296.771C296.814 77.9893 297.061 78.4313 297.512 78.726C297.971 79.012 298.591 79.155 299.371 79.155C299.769 79.155 300.172 79.1203 300.58 79.051C300.987 78.973 301.347 78.8733 301.659 78.752V79.805C301.381 79.9177 301.013 80.0087 300.554 80.078C300.103 80.156 299.657 80.195 299.215 80.195ZM301.022 76.477C301.004 75.8877 300.809 75.4327 300.437 75.112C300.073 74.7827 299.553 74.618 298.877 74.618C298.218 74.618 297.707 74.787 297.343 75.125C296.979 75.463 296.788 75.9137 296.771 76.477H301.022ZM305.993 80.195C305.559 80.195 305.1 80.1387 304.615 80.026C304.129 79.922 303.748 79.779 303.471 79.597V78.479C303.809 78.6783 304.199 78.843 304.641 78.973C305.083 79.0943 305.512 79.155 305.928 79.155C306.396 79.155 306.738 79.0987 306.955 78.986C307.171 78.8733 307.28 78.6913 307.28 78.44C307.28 78.2493 307.228 78.0977 307.124 77.985C307.028 77.8637 306.859 77.7553 306.617 77.66C306.383 77.5647 306.027 77.452 305.551 77.322C305.039 77.1747 304.632 77.0273 304.329 76.88C304.034 76.724 303.809 76.529 303.653 76.295C303.505 76.061 303.432 75.7577 303.432 75.385C303.432 74.787 303.666 74.3363 304.134 74.033C304.61 73.721 305.247 73.565 306.045 73.565C306.461 73.565 306.868 73.604 307.267 73.682C307.665 73.76 307.986 73.8683 308.229 74.007V75.099C307.977 74.9517 307.665 74.8347 307.293 74.748C306.929 74.6613 306.556 74.618 306.175 74.618C305.715 74.618 305.364 74.6743 305.122 74.787C304.879 74.8997 304.758 75.099 304.758 75.385C304.758 75.567 304.81 75.7143 304.914 75.827C305.018 75.9397 305.182 76.0393 305.408 76.126C305.642 76.204 306.01 76.308 306.513 76.438C307.301 76.6547 307.847 76.9103 308.151 77.205C308.463 77.4997 308.619 77.907 308.619 78.427C308.619 78.9643 308.398 79.3933 307.956 79.714C307.514 80.0347 306.859 80.195 305.993 80.195ZM317.165 72.031H314.344V70.913H321.325V72.031H318.504V80H317.165V72.031ZM324.427 80.195C323.275 80.195 322.369 79.909 321.71 79.337C321.06 78.7563 320.735 77.9417 320.735 76.893C320.735 75.8703 321.026 75.06 321.606 74.462C322.196 73.864 323.032 73.565 324.115 73.565C324.835 73.565 325.446 73.7037 325.948 73.981C326.451 74.2497 326.828 74.6267 327.079 75.112C327.339 75.5887 327.469 76.1347 327.469 76.75V77.4H321.983C322.027 77.9893 322.274 78.4313 322.724 78.726C323.184 79.012 323.803 79.155 324.583 79.155C324.982 79.155 325.385 79.1203 325.792 79.051C326.2 78.973 326.559 78.8733 326.871 78.752V79.805C326.594 79.9177 326.226 80.0087 325.766 80.078C325.316 80.156 324.869 80.195 324.427 80.195ZM326.234 76.477C326.217 75.8877 326.022 75.4327 325.649 75.112C325.285 74.7827 324.765 74.618 324.089 74.618C323.431 74.618 322.919 74.787 322.555 75.125C322.191 75.463 322.001 75.9137 321.983 76.477H326.234ZM328.905 73.76H330.179V74.878C330.439 74.4967 330.803 74.215 331.271 74.033C331.747 73.851 332.298 73.76 332.922 73.76V74.787C332.254 74.787 331.682 74.8953 331.206 75.112C330.729 75.3287 330.4 75.671 330.218 76.139V80H328.905V73.76ZM334.033 73.76H335.307V74.878C335.567 74.4967 335.931 74.215 336.399 74.033C336.876 73.851 337.426 73.76 338.05 73.76V74.787C337.383 74.787 336.811 74.8953 336.334 75.112C335.858 75.3287 335.528 75.671 335.346 76.139V80H334.033V73.76ZM340.878 80.195C340.124 80.195 339.517 80.0043 339.058 79.623C338.607 79.233 338.382 78.7087 338.382 78.05C338.382 77.3567 338.599 76.8237 339.032 76.451C339.474 76.0697 340.098 75.879 340.904 75.879C341.762 75.879 342.49 76.0523 343.088 76.399V76.074C343.088 75.58 342.936 75.216 342.633 74.982C342.338 74.7393 341.87 74.618 341.229 74.618C340.848 74.618 340.475 74.657 340.111 74.735C339.756 74.8043 339.435 74.904 339.149 75.034V73.968C339.409 73.8467 339.747 73.7513 340.163 73.682C340.579 73.604 340.982 73.565 341.372 73.565C342.403 73.565 343.166 73.7947 343.66 74.254C344.163 74.7047 344.414 75.333 344.414 76.139V80H343.179V79.298C342.91 79.5927 342.59 79.818 342.217 79.974C341.853 80.1213 341.407 80.195 340.878 80.195ZM341.203 79.194C341.619 79.194 341.996 79.1117 342.334 78.947C342.672 78.7823 342.923 78.5527 343.088 78.258V77.413C342.525 77.049 341.896 76.867 341.203 76.867C340.7 76.867 340.323 76.9667 340.072 77.166C339.829 77.3567 339.708 77.6513 339.708 78.05C339.708 78.8127 340.206 79.194 341.203 79.194ZM345.326 70.913H346.704L348.732 77.816L350.734 70.913H351.774L353.763 77.816L355.791 70.913H357.169L354.517 80H353.256L351.241 73.136L349.239 80H347.978L345.326 70.913ZM361.053 80.195C359.901 80.195 358.995 79.909 358.336 79.337C357.686 78.7563 357.361 77.9417 357.361 76.893C357.361 75.8703 357.652 75.06 358.232 74.462C358.822 73.864 359.658 73.565 360.741 73.565C361.461 73.565 362.072 73.7037 362.574 73.981C363.077 74.2497 363.454 74.6267 363.705 75.112C363.965 75.5887 364.095 76.1347 364.095 76.75V77.4H358.609C358.653 77.9893 358.9 78.4313 359.35 78.726C359.81 79.012 360.429 79.155 361.209 79.155C361.608 79.155 362.011 79.1203 362.418 79.051C362.826 78.973 363.185 78.8733 363.497 78.752V79.805C363.22 79.9177 362.852 80.0087 362.392 80.078C361.942 80.156 361.495 80.195 361.053 80.195ZM362.86 76.477C362.843 75.8877 362.648 75.4327 362.275 75.112C361.911 74.7827 361.391 74.618 360.715 74.618C360.057 74.618 359.545 74.787 359.181 75.125C358.817 75.463 358.627 75.9137 358.609 76.477H362.86ZM369.405 80.195C368.841 80.195 368.352 80.1083 367.936 79.935C367.528 79.753 367.151 79.4713 366.805 79.09V80H365.531V70.393H366.844V74.592C367.13 74.254 367.498 73.9983 367.949 73.825C368.399 73.6517 368.885 73.565 369.405 73.565C370.029 73.565 370.588 73.708 371.082 73.994C371.584 74.2713 371.974 74.6613 372.252 75.164C372.538 75.6667 372.681 76.243 372.681 76.893C372.681 77.5517 372.538 78.1323 372.252 78.635C371.974 79.129 371.584 79.5147 371.082 79.792C370.588 80.0607 370.029 80.195 369.405 80.195ZM369.106 79.155C369.53 79.155 369.912 79.064 370.25 78.882C370.596 78.6913 370.865 78.4227 371.056 78.076C371.255 77.7293 371.355 77.335 371.355 76.893C371.355 76.451 371.255 76.0567 371.056 75.71C370.865 75.3633 370.596 75.0947 370.25 74.904C369.912 74.7133 369.53 74.618 369.106 74.618C368.577 74.618 368.105 74.761 367.689 75.047C367.273 75.333 366.991 75.7143 366.844 76.191V77.595C367.008 78.0717 367.29 78.453 367.689 78.739C368.096 79.0163 368.568 79.155 369.106 79.155ZM381.16 80.195C380.406 80.195 379.799 80.0043 379.34 79.623C378.889 79.233 378.664 78.7087 378.664 78.05C378.664 77.3567 378.881 76.8237 379.314 76.451C379.756 76.0697 380.38 75.879 381.186 75.879C382.044 75.879 382.772 76.0523 383.37 76.399V76.074C383.37 75.58 383.218 75.216 382.915 74.982C382.62 74.7393 382.152 74.618 381.511 74.618C381.13 74.618 380.757 74.657 380.393 74.735C380.038 74.8043 379.717 74.904 379.431 75.034V73.968C379.691 73.8467 380.029 73.7513 380.445 73.682C380.861 73.604 381.264 73.565 381.654 73.565C382.685 73.565 383.448 73.7947 383.942 74.254C384.445 74.7047 384.696 75.333 384.696 76.139V80H383.461V79.298C383.192 79.5927 382.872 79.818 382.499 79.974C382.135 80.1213 381.689 80.195 381.16 80.195ZM381.485 79.194C381.901 79.194 382.278 79.1117 382.616 78.947C382.954 78.7823 383.205 78.5527 383.37 78.258V77.413C382.807 77.049 382.178 76.867 381.485 76.867C380.982 76.867 380.605 76.9667 380.354 77.166C380.111 77.3567 379.99 77.6513 379.99 78.05C379.99 78.8127 380.488 79.194 381.485 79.194ZM0.585 97.76H1.976L3.809 102.245L5.642 97.76H7.033L4.381 104H3.237L0.585 97.76ZM10.1142 104.195C9.3602 104.195 8.75354 104.004 8.2942 103.623C7.84354 103.233 7.6182 102.709 7.6182 102.05C7.6182 101.357 7.83487 100.824 8.2682 100.451C8.7102 100.07 9.3342 99.879 10.1402 99.879C10.9982 99.879 11.7262 100.052 12.3242 100.399V100.074C12.3242 99.58 12.1725 99.216 11.8692 98.982C11.5745 98.7393 11.1065 98.618 10.4652 98.618C10.0839 98.618 9.7112 98.657 9.3472 98.735C8.99187 98.8043 8.6712 98.904 8.3852 99.034V97.968C8.6452 97.8467 8.9832 97.7513 9.3992 97.682C9.8152 97.604 10.2182 97.565 10.6082 97.565C11.6395 97.565 12.4022 97.7947 12.8962 98.254C13.3989 98.7047 13.6502 99.333 13.6502 100.139V104H12.4152V103.298C12.1465 103.593 11.8259 103.818 11.4532 103.974C11.0892 104.121 10.6429 104.195 10.1142 104.195ZM10.4392 103.194C10.8552 103.194 11.2322 103.112 11.5702 102.947C11.9082 102.782 12.1595 102.553 12.3242 102.258V101.413C11.7609 101.049 11.1325 100.867 10.4392 100.867C9.93654 100.867 9.55954 100.967 9.3082 101.166C9.06554 101.357 8.9442 101.651 8.9442 102.05C8.9442 102.813 9.44254 103.194 10.4392 103.194ZM15.2796 94.393H16.5926V104H15.2796V94.393ZM20.7714 104.195C19.9307 104.195 19.2937 103.97 18.8604 103.519C18.4357 103.068 18.2234 102.466 18.2234 101.712V97.76H19.5364V101.66C19.5364 102.657 20.0347 103.155 21.0314 103.155C21.9067 103.155 22.5914 102.761 23.0854 101.972V97.76H24.3984V104H23.1244V103.116C22.8297 103.489 22.4787 103.762 22.0714 103.935C21.6727 104.108 21.2394 104.195 20.7714 104.195ZM28.1289 104.195C27.3749 104.195 26.7682 104.004 26.3089 103.623C25.8582 103.233 25.6329 102.709 25.6329 102.05C25.6329 101.357 25.8495 100.824 26.2829 100.451C26.7249 100.07 27.3489 99.879 28.1549 99.879C29.0129 99.879 29.7409 100.052 30.3389 100.399V100.074C30.3389 99.58 30.1872 99.216 29.8839 98.982C29.5892 98.7393 29.1212 98.618 28.4799 98.618C28.0985 98.618 27.7259 98.657 27.3619 98.735C27.0065 98.8043 26.6859 98.904 26.3999 99.034V97.968C26.6599 97.8467 26.9979 97.7513 27.4139 97.682C27.8299 97.604 28.2329 97.565 28.6229 97.565C29.6542 97.565 30.4169 97.7947 30.9109 98.254C31.4135 98.7047 31.6649 99.333 31.6649 100.139V104H30.4299V103.298C30.1612 103.593 29.8405 103.818 29.4679 103.974C29.1039 104.121 28.6575 104.195 28.1289 104.195ZM28.4539 103.194C28.8699 103.194 29.2469 103.112 29.5849 102.947C29.9229 102.782 30.1742 102.553 30.3389 102.258V101.413C29.7755 101.049 29.1472 100.867 28.4539 100.867C27.9512 100.867 27.5742 100.967 27.3229 101.166C27.0802 101.357 26.9589 101.651 26.9589 102.05C26.9589 102.813 27.4572 103.194 28.4539 103.194ZM37.1682 104.195C36.6049 104.195 36.1152 104.108 35.6992 103.935C35.2919 103.753 34.9149 103.471 34.5682 103.09V104H33.2942V94.393H34.6072V98.592C34.8932 98.254 35.2616 97.9983 35.7122 97.825C36.1629 97.6517 36.6482 97.565 37.1682 97.565C37.7922 97.565 38.3512 97.708 38.8452 97.994C39.3479 98.2713 39.7379 98.6613 40.0152 99.164C40.3012 99.6667 40.4442 100.243 40.4442 100.893C40.4442 101.552 40.3012 102.132 40.0152 102.635C39.7379 103.129 39.3479 103.515 38.8452 103.792C38.3512 104.061 37.7922 104.195 37.1682 104.195ZM36.8692 103.155C37.2939 103.155 37.6752 103.064 38.0132 102.882C38.3599 102.691 38.6286 102.423 38.8192 102.076C39.0186 101.729 39.1182 101.335 39.1182 100.893C39.1182 100.451 39.0186 100.057 38.8192 99.71C38.6286 99.3633 38.3599 99.0947 38.0132 98.904C37.6752 98.7133 37.2939 98.618 36.8692 98.618C36.3406 98.618 35.8682 98.761 35.4522 99.047C35.0362 99.333 34.7546 99.7143 34.6072 100.191V101.595C34.7719 102.072 35.0536 102.453 35.4522 102.739C35.8596 103.016 36.3319 103.155 36.8692 103.155ZM41.8763 94.393H43.1893V104H41.8763V94.393ZM48.317 104.195C47.1644 104.195 46.2587 103.909 45.6 103.337C44.95 102.756 44.625 101.942 44.625 100.893C44.625 99.8703 44.9154 99.06 45.496 98.462C46.0854 97.864 46.9217 97.565 48.005 97.565C48.7244 97.565 49.3354 97.7037 49.838 97.981C50.3407 98.2497 50.7177 98.6267 50.969 99.112C51.229 99.5887 51.359 100.135 51.359 100.75V101.4H45.873C45.9164 101.989 46.1634 102.431 46.614 102.726C47.0734 103.012 47.693 103.155 48.473 103.155C48.8717 103.155 49.2747 103.12 49.682 103.051C50.0894 102.973 50.449 102.873 50.761 102.752V103.805C50.4837 103.918 50.1154 104.009 49.656 104.078C49.2054 104.156 48.759 104.195 48.317 104.195ZM50.124 100.477C50.1067 99.8877 49.9117 99.4327 49.539 99.112C49.175 98.7827 48.655 98.618 47.979 98.618C47.3204 98.618 46.809 98.787 46.445 99.125C46.081 99.463 45.8904 99.9137 45.873 100.477H50.124ZM60.0107 104.195C59.3781 104.195 58.8884 104.013 58.5417 103.649C58.2037 103.285 58.0347 102.769 58.0347 102.102V98.774H57.0857V97.76H58.0347V95.888H59.3607V97.76H60.8947V98.774H59.3607V102.011C59.3607 102.427 59.4387 102.722 59.5947 102.895C59.7594 103.068 60.0541 103.155 60.4787 103.155C60.7301 103.155 60.9814 103.099 61.2327 102.986V104.026C60.9034 104.139 60.4961 104.195 60.0107 104.195ZM65.6936 104.195C64.9916 104.195 64.3719 104.065 63.8346 103.805C63.3059 103.536 62.8899 103.155 62.5866 102.661C62.2919 102.158 62.1446 101.569 62.1446 100.893C62.1446 100.226 62.2919 99.6407 62.5866 99.138C62.8812 98.6353 63.2972 98.2497 63.8346 97.981C64.3719 97.7037 64.9916 97.565 65.6936 97.565C66.3956 97.565 67.0152 97.7037 67.5526 97.981C68.0899 98.2497 68.5059 98.6353 68.8006 99.138C69.1039 99.6407 69.2556 100.226 69.2556 100.893C69.2556 101.569 69.1039 102.158 68.8006 102.661C68.5059 103.155 68.0899 103.536 67.5526 103.805C67.0152 104.065 66.3956 104.195 65.6936 104.195ZM65.6936 103.155C66.3696 103.155 66.9069 102.947 67.3056 102.531C67.7042 102.115 67.9036 101.569 67.9036 100.893C67.9036 100.191 67.7042 99.6363 67.3056 99.229C66.9069 98.8217 66.3696 98.618 65.6936 98.618C65.0176 98.618 64.4802 98.8217 64.0816 99.229C63.6829 99.6363 63.4836 100.191 63.4836 100.893C63.4836 101.569 63.6829 102.115 64.0816 102.531C64.4802 102.947 65.0176 103.155 65.6936 103.155ZM73.6408 104.195C72.9388 104.195 72.3192 104.065 71.7818 103.805C71.2532 103.536 70.8372 103.155 70.5338 102.661C70.2392 102.158 70.0918 101.569 70.0918 100.893C70.0918 100.226 70.2392 99.6407 70.5338 99.138C70.8285 98.6353 71.2445 98.2497 71.7818 97.981C72.3192 97.7037 72.9388 97.565 73.6408 97.565C74.3428 97.565 74.9625 97.7037 75.4998 97.981C76.0372 98.2497 76.4532 98.6353 76.7478 99.138C77.0512 99.6407 77.2028 100.226 77.2028 100.893C77.2028 101.569 77.0512 102.158 76.7478 102.661C76.4532 103.155 76.0372 103.536 75.4998 103.805C74.9625 104.065 74.3428 104.195 73.6408 104.195ZM73.6408 103.155C74.3168 103.155 74.8542 102.947 75.2528 102.531C75.6515 102.115 75.8508 101.569 75.8508 100.893C75.8508 100.191 75.6515 99.6363 75.2528 99.229C74.8542 98.8217 74.3168 98.618 73.6408 98.618C72.9648 98.618 72.4275 98.8217 72.0288 99.229C71.6302 99.6363 71.4308 100.191 71.4308 100.893C71.4308 101.569 71.6302 102.115 72.0288 102.531C72.4275 102.947 72.9648 103.155 73.6408 103.155ZM78.6292 94.393H79.9422V104H78.6292V94.393ZM86.8785 98.774H85.9295V97.76H86.8785V96.538C86.8785 95.8187 87.0822 95.2727 87.4895 94.9C87.8968 94.5187 88.4428 94.328 89.1275 94.328C89.4828 94.328 89.8165 94.38 90.1285 94.484V95.576C89.8858 95.4633 89.6345 95.407 89.3745 95.407C88.9672 95.407 88.6682 95.5067 88.4775 95.706C88.2868 95.8967 88.1915 96.2 88.1915 96.616V97.76H89.7515V98.774H88.1915V104H86.8785V98.774ZM93.8645 104.195C93.1625 104.195 92.5428 104.065 92.0055 103.805C91.4768 103.536 91.0608 103.155 90.7575 102.661C90.4628 102.158 90.3155 101.569 90.3155 100.893C90.3155 100.226 90.4628 99.6407 90.7575 99.138C91.0521 98.6353 91.4681 98.2497 92.0055 97.981C92.5428 97.7037 93.1625 97.565 93.8645 97.565C94.5665 97.565 95.1861 97.7037 95.7235 97.981C96.2608 98.2497 96.6768 98.6353 96.9715 99.138C97.2748 99.6407 97.4265 100.226 97.4265 100.893C97.4265 101.569 97.2748 102.158 96.9715 102.661C96.6768 103.155 96.2608 103.536 95.7235 103.805C95.1861 104.065 94.5665 104.195 93.8645 104.195ZM93.8645 103.155C94.5405 103.155 95.0778 102.947 95.4765 102.531C95.8751 102.115 96.0745 101.569 96.0745 100.893C96.0745 100.191 95.8751 99.6363 95.4765 99.229C95.0778 98.8217 94.5405 98.618 93.8645 98.618C93.1885 98.618 92.6511 98.8217 92.2525 99.229C91.8538 99.6363 91.6545 100.191 91.6545 100.893C91.6545 101.569 91.8538 102.115 92.2525 102.531C92.6511 102.947 93.1885 103.155 93.8645 103.155ZM98.8528 97.76H100.127V98.878C100.387 98.4967 100.751 98.215 101.219 98.033C101.695 97.851 102.246 97.76 102.87 97.76V98.787C102.202 98.787 101.63 98.8953 101.154 99.112C100.677 99.3287 100.348 99.671 100.166 100.139V104H98.8528V97.76ZM108.857 97.76H110.105V98.657C110.399 98.293 110.733 98.02 111.106 97.838C111.478 97.656 111.864 97.565 112.263 97.565C112.765 97.565 113.164 97.6517 113.459 97.825C113.753 97.9897 113.97 98.2453 114.109 98.592C114.386 98.254 114.724 97.9983 115.123 97.825C115.53 97.6517 115.937 97.565 116.345 97.565C117.107 97.565 117.658 97.76 117.996 98.15C118.334 98.5313 118.503 99.099 118.503 99.853V104H117.229V100.022C117.229 99.5107 117.133 99.151 116.943 98.943C116.752 98.7263 116.427 98.618 115.968 98.618C115.309 98.618 114.772 98.904 114.356 99.476C114.373 99.606 114.382 99.8183 114.382 100.113V104H113.108V100.022C113.108 99.5107 113.021 99.151 112.848 98.943C112.674 98.7263 112.362 98.618 111.912 98.618C111.253 98.618 110.664 98.9907 110.144 99.736V104H108.857V97.76ZM122.176 104.195C121.422 104.195 120.815 104.004 120.356 103.623C119.905 103.233 119.68 102.709 119.68 102.05C119.68 101.357 119.896 100.824 120.33 100.451C120.772 100.07 121.396 99.879 122.202 99.879C123.06 99.879 123.788 100.052 124.386 100.399V100.074C124.386 99.58 124.234 99.216 123.931 98.982C123.636 98.7393 123.168 98.618 122.527 98.618C122.145 98.618 121.773 98.657 121.409 98.735C121.053 98.8043 120.733 98.904 120.447 99.034V97.968C120.707 97.8467 121.045 97.7513 121.461 97.682C121.877 97.604 122.28 97.565 122.67 97.565C123.701 97.565 124.464 97.7947 124.958 98.254C125.46 98.7047 125.712 99.333 125.712 100.139V104H124.477V103.298C124.208 103.593 123.887 103.818 123.515 103.974C123.151 104.121 122.704 104.195 122.176 104.195ZM122.501 103.194C122.917 103.194 123.294 103.112 123.632 102.947C123.97 102.782 124.221 102.553 124.386 102.258V101.413C123.822 101.049 123.194 100.867 122.501 100.867C121.998 100.867 121.621 100.967 121.37 101.166C121.127 101.357 121.006 101.651 121.006 102.05C121.006 102.813 121.504 103.194 122.501 103.194ZM127.341 97.76H128.615V98.657C128.91 98.2843 129.269 98.0113 129.694 97.838C130.127 97.656 130.578 97.565 131.046 97.565C131.878 97.565 132.498 97.786 132.905 98.228C133.312 98.67 133.516 99.2637 133.516 100.009V104H132.203V100.139C132.203 99.125 131.718 98.618 130.747 98.618C130.331 98.618 129.941 98.7177 129.577 98.917C129.222 99.1077 128.914 99.4023 128.654 99.801V104H127.341V97.76ZM137.182 104.195C136.428 104.195 135.821 104.004 135.362 103.623C134.911 103.233 134.686 102.709 134.686 102.05C134.686 101.357 134.902 100.824 135.336 100.451C135.778 100.07 136.402 99.879 137.208 99.879C138.066 99.879 138.794 100.052 139.392 100.399V100.074C139.392 99.58 139.24 99.216 138.937 98.982C138.642 98.7393 138.174 98.618 137.533 98.618C137.151 98.618 136.779 98.657 136.415 98.735C136.059 98.8043 135.739 98.904 135.453 99.034V97.968C135.713 97.8467 136.051 97.7513 136.467 97.682C136.883 97.604 137.286 97.565 137.676 97.565C138.707 97.565 139.47 97.7947 139.964 98.254C140.466 98.7047 140.718 99.333 140.718 100.139V104H139.483V103.298C139.214 103.593 138.893 103.818 138.521 103.974C138.157 104.121 137.71 104.195 137.182 104.195ZM137.507 103.194C137.923 103.194 138.3 103.112 138.638 102.947C138.976 102.782 139.227 102.553 139.392 102.258V101.413C138.828 101.049 138.2 100.867 137.507 100.867C137.004 100.867 136.627 100.967 136.376 101.166C136.133 101.357 136.012 101.651 136.012 102.05C136.012 102.813 136.51 103.194 137.507 103.194ZM145.61 106.99C145.185 106.99 144.769 106.955 144.362 106.886C143.963 106.817 143.625 106.717 143.348 106.587V105.508C143.998 105.803 144.752 105.95 145.61 105.95C146.416 105.95 147.001 105.772 147.365 105.417C147.738 105.07 147.924 104.542 147.924 103.831V103.168C147.352 103.853 146.511 104.195 145.402 104.195C144.769 104.195 144.202 104.056 143.699 103.779C143.196 103.502 142.802 103.112 142.516 102.609C142.23 102.106 142.087 101.53 142.087 100.88C142.087 100.221 142.226 99.645 142.503 99.151C142.789 98.6483 143.179 98.2583 143.673 97.981C144.176 97.7037 144.739 97.565 145.363 97.565C145.944 97.565 146.433 97.6517 146.832 97.825C147.239 97.9897 147.616 98.267 147.963 98.657V97.76H149.237V103.688C149.237 104.754 148.938 105.569 148.34 106.132C147.751 106.704 146.841 106.99 145.61 106.99ZM145.662 103.155C146.199 103.155 146.672 103.012 147.079 102.726C147.495 102.44 147.777 102.059 147.924 101.582V100.178C147.759 99.6927 147.473 99.3113 147.066 99.034C146.667 98.7567 146.199 98.618 145.662 98.618C145.237 98.618 144.852 98.7133 144.505 98.904C144.167 99.086 143.898 99.3503 143.699 99.697C143.508 100.044 143.413 100.438 143.413 100.88C143.413 101.331 143.508 101.729 143.699 102.076C143.898 102.414 144.167 102.678 144.505 102.869C144.852 103.06 145.237 103.155 145.662 103.155ZM151.696 96.538C151.479 96.538 151.297 96.4643 151.15 96.317C151.003 96.1697 150.929 95.9877 150.929 95.771C150.929 95.5543 151.003 95.3723 151.15 95.225C151.297 95.0777 151.479 95.004 151.696 95.004C151.921 95.004 152.108 95.0777 152.255 95.225C152.411 95.3723 152.489 95.5543 152.489 95.771C152.489 95.9877 152.411 96.1697 152.255 96.317C152.108 96.4643 151.921 96.538 151.696 96.538ZM151.033 97.76H152.372V104H151.033V97.76ZM154.179 97.76H155.453V98.657C155.748 98.2843 156.107 98.0113 156.532 97.838C156.965 97.656 157.416 97.565 157.884 97.565C158.716 97.565 159.336 97.786 159.743 98.228C160.15 98.67 160.354 99.2637 160.354 100.009V104H159.041V100.139C159.041 99.125 158.556 98.618 157.585 98.618C157.169 98.618 156.779 98.7177 156.415 98.917C156.06 99.1077 155.752 99.4023 155.492 99.801V104H154.179V97.76ZM165.237 106.99C164.812 106.99 164.396 106.955 163.989 106.886C163.59 106.817 163.252 106.717 162.975 106.587V105.508C163.625 105.803 164.379 105.95 165.237 105.95C166.043 105.95 166.628 105.772 166.992 105.417C167.365 105.07 167.551 104.542 167.551 103.831V103.168C166.979 103.853 166.138 104.195 165.029 104.195C164.396 104.195 163.829 104.056 163.326 103.779C162.823 103.502 162.429 103.112 162.143 102.609C161.857 102.106 161.714 101.53 161.714 100.88C161.714 100.221 161.853 99.645 162.13 99.151C162.416 98.6483 162.806 98.2583 163.3 97.981C163.803 97.7037 164.366 97.565 164.99 97.565C165.571 97.565 166.06 97.6517 166.459 97.825C166.866 97.9897 167.243 98.267 167.59 98.657V97.76H168.864V103.688C168.864 104.754 168.565 105.569 167.967 106.132C167.378 106.704 166.468 106.99 165.237 106.99ZM165.289 103.155C165.826 103.155 166.299 103.012 166.706 102.726C167.122 102.44 167.404 102.059 167.551 101.582V100.178C167.386 99.6927 167.1 99.3113 166.693 99.034C166.294 98.7567 165.826 98.618 165.289 98.618C164.864 98.618 164.479 98.7133 164.132 98.904C163.794 99.086 163.525 99.3503 163.326 99.697C163.135 100.044 163.04 100.438 163.04 100.88C163.04 101.331 163.135 101.729 163.326 102.076C163.525 102.414 163.794 102.678 164.132 102.869C164.479 103.06 164.864 103.155 165.289 103.155ZM176.134 96.538C175.918 96.538 175.736 96.4643 175.588 96.317C175.441 96.1697 175.367 95.9877 175.367 95.771C175.367 95.5543 175.441 95.3723 175.588 95.225C175.736 95.0777 175.918 95.004 176.134 95.004C176.36 95.004 176.546 95.0777 176.693 95.225C176.849 95.3723 176.927 95.5543 176.927 95.771C176.927 95.9877 176.849 96.1697 176.693 96.317C176.546 96.4643 176.36 96.538 176.134 96.538ZM175.471 97.76H176.81V104H175.471V97.76ZM178.617 97.76H179.891V98.657C180.186 98.2843 180.546 98.0113 180.97 97.838C181.404 97.656 181.854 97.565 182.322 97.565C183.154 97.565 183.774 97.786 184.181 98.228C184.589 98.67 184.792 99.2637 184.792 100.009V104H183.479V100.139C183.479 99.125 182.994 98.618 182.023 98.618C181.607 98.618 181.217 98.7177 180.853 98.917C180.498 99.1077 180.19 99.4023 179.93 99.801V104H178.617V97.76ZM186.841 98.774H185.892V97.76H186.841V96.538C186.841 95.8187 187.045 95.2727 187.452 94.9C187.86 94.5187 188.406 94.328 189.09 94.328C189.446 94.328 189.779 94.38 190.091 94.484V95.576C189.849 95.4633 189.597 95.407 189.337 95.407C188.93 95.407 188.631 95.5067 188.44 95.706C188.25 95.8967 188.154 96.2 188.154 96.616V97.76H189.714V98.774H188.154V104H186.841V98.774ZM190.932 97.76H192.206V98.878C192.466 98.4967 192.83 98.215 193.298 98.033C193.775 97.851 194.325 97.76 194.949 97.76V98.787C194.282 98.787 193.71 98.8953 193.233 99.112C192.756 99.3287 192.427 99.671 192.245 100.139V104H190.932V97.76ZM197.776 104.195C197.022 104.195 196.416 104.004 195.956 103.623C195.506 103.233 195.28 102.709 195.28 102.05C195.28 101.357 195.497 100.824 195.93 100.451C196.372 100.07 196.996 99.879 197.802 99.879C198.66 99.879 199.388 100.052 199.986 100.399V100.074C199.986 99.58 199.835 99.216 199.531 98.982C199.237 98.7393 198.769 98.618 198.127 98.618C197.746 98.618 197.373 98.657 197.009 98.735C196.654 98.8043 196.333 98.904 196.047 99.034V97.968C196.307 97.8467 196.645 97.7513 197.061 97.682C197.477 97.604 197.88 97.565 198.27 97.565C199.302 97.565 200.064 97.7947 200.558 98.254C201.061 98.7047 201.312 99.333 201.312 100.139V104H200.077V103.298C199.809 103.593 199.488 103.818 199.115 103.974C198.751 104.121 198.305 104.195 197.776 104.195ZM198.101 103.194C198.517 103.194 198.894 103.112 199.232 102.947C199.57 102.782 199.822 102.553 199.986 102.258V101.413C199.423 101.049 198.795 100.867 198.101 100.867C197.599 100.867 197.222 100.967 196.97 101.166C196.728 101.357 196.606 101.651 196.606 102.05C196.606 102.813 197.105 103.194 198.101 103.194ZM205.052 104.195C204.619 104.195 204.16 104.139 203.674 104.026C203.189 103.922 202.808 103.779 202.53 103.597V102.479C202.868 102.678 203.258 102.843 203.7 102.973C204.142 103.094 204.571 103.155 204.987 103.155C205.455 103.155 205.798 103.099 206.014 102.986C206.231 102.873 206.339 102.691 206.339 102.44C206.339 102.249 206.287 102.098 206.183 101.985C206.088 101.864 205.919 101.755 205.676 101.66C205.442 101.565 205.087 101.452 204.61 101.322C204.099 101.175 203.692 101.027 203.388 100.88C203.094 100.724 202.868 100.529 202.712 100.295C202.565 100.061 202.491 99.7577 202.491 99.385C202.491 98.787 202.725 98.3363 203.193 98.033C203.67 97.721 204.307 97.565 205.104 97.565C205.52 97.565 205.928 97.604 206.326 97.682C206.725 97.76 207.046 97.8683 207.288 98.007V99.099C207.037 98.9517 206.725 98.8347 206.352 98.748C205.988 98.6613 205.616 98.618 205.234 98.618C204.775 98.618 204.424 98.6743 204.181 98.787C203.939 98.8997 203.817 99.099 203.817 99.385C203.817 99.567 203.869 99.7143 203.973 99.827C204.077 99.9397 204.242 100.039 204.467 100.126C204.701 100.204 205.07 100.308 205.572 100.438C206.361 100.655 206.907 100.91 207.21 101.205C207.522 101.5 207.678 101.907 207.678 102.427C207.678 102.964 207.457 103.393 207.015 103.714C206.573 104.035 205.919 104.195 205.052 104.195ZM211.326 104.195C210.694 104.195 210.204 104.013 209.857 103.649C209.519 103.285 209.35 102.769 209.35 102.102V98.774H208.401V97.76H209.35V95.888H210.676V97.76H212.21V98.774H210.676V102.011C210.676 102.427 210.754 102.722 210.91 102.895C211.075 103.068 211.37 103.155 211.794 103.155C212.046 103.155 212.297 103.099 212.548 102.986V104.026C212.219 104.139 211.812 104.195 211.326 104.195ZM213.783 97.76H215.057V98.878C215.317 98.4967 215.681 98.215 216.149 98.033C216.626 97.851 217.176 97.76 217.8 97.76V98.787C217.133 98.787 216.561 98.8953 216.084 99.112C215.608 99.3287 215.278 99.671 215.096 100.139V104H213.783V97.76ZM221.395 104.195C220.555 104.195 219.918 103.97 219.484 103.519C219.06 103.068 218.847 102.466 218.847 101.712V97.76H220.16V101.66C220.16 102.657 220.659 103.155 221.655 103.155C222.531 103.155 223.215 102.761 223.709 101.972V97.76H225.022V104H223.748V103.116C223.454 103.489 223.103 103.762 222.695 103.935C222.297 104.108 221.863 104.195 221.395 104.195ZM229.996 104.195C229.303 104.195 228.688 104.065 228.15 103.805C227.613 103.545 227.193 103.168 226.889 102.674C226.595 102.171 226.447 101.578 226.447 100.893C226.447 100.208 226.595 99.619 226.889 99.125C227.193 98.6223 227.613 98.2367 228.15 97.968C228.696 97.6993 229.32 97.565 230.022 97.565C230.976 97.565 231.738 97.7513 232.31 98.124V99.203C231.747 98.813 231.028 98.618 230.152 98.618C229.442 98.618 228.865 98.813 228.423 99.203C227.99 99.5843 227.773 100.148 227.773 100.893C227.773 101.638 227.99 102.202 228.423 102.583C228.857 102.964 229.424 103.155 230.126 103.155C231.002 103.155 231.756 102.947 232.388 102.531V103.597C232.085 103.805 231.738 103.957 231.348 104.052C230.967 104.147 230.516 104.195 229.996 104.195ZM236.222 104.195C235.589 104.195 235.099 104.013 234.753 103.649C234.415 103.285 234.246 102.769 234.246 102.102V98.774H233.297V97.76H234.246V95.888H235.572V97.76H237.106V98.774H235.572V102.011C235.572 102.427 235.65 102.722 235.806 102.895C235.97 103.068 236.265 103.155 236.69 103.155C236.941 103.155 237.192 103.099 237.444 102.986V104.026C237.114 104.139 236.707 104.195 236.222 104.195ZM241.099 104.195C240.258 104.195 239.621 103.97 239.188 103.519C238.763 103.068 238.551 102.466 238.551 101.712V97.76H239.864V101.66C239.864 102.657 240.362 103.155 241.359 103.155C242.234 103.155 242.919 102.761 243.413 101.972V97.76H244.726V104H243.452V103.116C243.157 103.489 242.806 103.762 242.399 103.935C242 104.108 241.567 104.195 241.099 104.195ZM246.41 97.76H247.684V98.878C247.944 98.4967 248.308 98.215 248.776 98.033C249.253 97.851 249.803 97.76 250.427 97.76V98.787C249.76 98.787 249.188 98.8953 248.711 99.112C248.235 99.3287 247.905 99.671 247.723 100.139V104H246.41V97.76ZM254.641 104.195C253.489 104.195 252.583 103.909 251.924 103.337C251.274 102.756 250.949 101.942 250.949 100.893C250.949 99.8703 251.24 99.06 251.82 98.462C252.41 97.864 253.246 97.565 254.329 97.565C255.049 97.565 255.66 97.7037 256.162 97.981C256.665 98.2497 257.042 98.6267 257.293 99.112C257.553 99.5887 257.683 100.135 257.683 100.75V101.4H252.197C252.241 101.989 252.488 102.431 252.938 102.726C253.398 103.012 254.017 103.155 254.797 103.155C255.196 103.155 255.599 103.12 256.006 103.051C256.414 102.973 256.773 102.873 257.085 102.752V103.805C256.808 103.918 256.44 104.009 255.98 104.078C255.53 104.156 255.083 104.195 254.641 104.195ZM256.448 100.477C256.431 99.8877 256.236 99.4327 255.863 99.112C255.499 98.7827 254.979 98.618 254.303 98.618C253.645 98.618 253.133 98.787 252.769 99.125C252.405 99.463 252.215 99.9137 252.197 100.477H256.448ZM266.166 104.195C265.412 104.195 264.805 104.004 264.346 103.623C263.895 103.233 263.67 102.709 263.67 102.05C263.67 101.357 263.887 100.824 264.32 100.451C264.762 100.07 265.386 99.879 266.192 99.879C267.05 99.879 267.778 100.052 268.376 100.399V100.074C268.376 99.58 268.224 99.216 267.921 98.982C267.626 98.7393 267.158 98.618 266.517 98.618C266.136 98.618 265.763 98.657 265.399 98.735C265.044 98.8043 264.723 98.904 264.437 99.034V97.968C264.697 97.8467 265.035 97.7513 265.451 97.682C265.867 97.604 266.27 97.565 266.66 97.565C267.691 97.565 268.454 97.7947 268.948 98.254C269.451 98.7047 269.702 99.333 269.702 100.139V104H268.467V103.298C268.198 103.593 267.878 103.818 267.505 103.974C267.141 104.121 266.695 104.195 266.166 104.195ZM266.491 103.194C266.907 103.194 267.284 103.112 267.622 102.947C267.96 102.782 268.211 102.553 268.376 102.258V101.413C267.813 101.049 267.184 100.867 266.491 100.867C265.988 100.867 265.611 100.967 265.36 101.166C265.117 101.357 264.996 101.651 264.996 102.05C264.996 102.813 265.494 103.194 266.491 103.194ZM273.442 104.195C273.009 104.195 272.549 104.139 272.064 104.026C271.579 103.922 271.197 103.779 270.92 103.597V102.479C271.258 102.678 271.648 102.843 272.09 102.973C272.532 103.094 272.961 103.155 273.377 103.155C273.845 103.155 274.187 103.099 274.404 102.986C274.621 102.873 274.729 102.691 274.729 102.44C274.729 102.249 274.677 102.098 274.573 101.985C274.478 101.864 274.309 101.755 274.066 101.66C273.832 101.565 273.477 101.452 273 101.322C272.489 101.175 272.081 101.027 271.778 100.88C271.483 100.724 271.258 100.529 271.102 100.295C270.955 100.061 270.881 99.7577 270.881 99.385C270.881 98.787 271.115 98.3363 271.583 98.033C272.06 97.721 272.697 97.565 273.494 97.565C273.91 97.565 274.317 97.604 274.716 97.682C275.115 97.76 275.435 97.8683 275.678 98.007V99.099C275.427 98.9517 275.115 98.8347 274.742 98.748C274.378 98.6613 274.005 98.618 273.624 98.618C273.165 98.618 272.814 98.6743 272.571 98.787C272.328 98.8997 272.207 99.099 272.207 99.385C272.207 99.567 272.259 99.7143 272.363 99.827C272.467 99.9397 272.632 100.039 272.857 100.126C273.091 100.204 273.459 100.308 273.962 100.438C274.751 100.655 275.297 100.91 275.6 101.205C275.912 101.5 276.068 101.907 276.068 102.427C276.068 102.964 275.847 103.393 275.405 103.714C274.963 104.035 274.309 104.195 273.442 104.195ZM285.602 104.195C284.908 104.195 284.293 104.065 283.756 103.805C283.218 103.545 282.798 103.168 282.495 102.674C282.2 102.171 282.053 101.578 282.053 100.893C282.053 100.208 282.2 99.619 282.495 99.125C282.798 98.6223 283.218 98.2367 283.756 97.968C284.302 97.6993 284.926 97.565 285.628 97.565C286.581 97.565 287.344 97.7513 287.916 98.124V99.203C287.352 98.813 286.633 98.618 285.758 98.618C285.047 98.618 284.471 98.813 284.029 99.203C283.595 99.5843 283.379 100.148 283.379 100.893C283.379 101.638 283.595 102.202 284.029 102.583C284.462 102.964 285.03 103.155 285.732 103.155C286.607 103.155 287.361 102.947 287.994 102.531V103.597C287.69 103.805 287.344 103.957 286.954 104.052C286.572 104.147 286.122 104.195 285.602 104.195ZM292.521 104.195C291.819 104.195 291.199 104.065 290.662 103.805C290.133 103.536 289.717 103.155 289.414 102.661C289.119 102.158 288.972 101.569 288.972 100.893C288.972 100.226 289.119 99.6407 289.414 99.138C289.708 98.6353 290.124 98.2497 290.662 97.981C291.199 97.7037 291.819 97.565 292.521 97.565C293.223 97.565 293.842 97.7037 294.38 97.981C294.917 98.2497 295.333 98.6353 295.628 99.138C295.931 99.6407 296.083 100.226 296.083 100.893C296.083 101.569 295.931 102.158 295.628 102.661C295.333 103.155 294.917 103.536 294.38 103.805C293.842 104.065 293.223 104.195 292.521 104.195ZM292.521 103.155C293.197 103.155 293.734 102.947 294.133 102.531C294.531 102.115 294.731 101.569 294.731 100.893C294.731 100.191 294.531 99.6363 294.133 99.229C293.734 98.8217 293.197 98.618 292.521 98.618C291.845 98.618 291.307 98.8217 290.909 99.229C290.51 99.6363 290.311 100.191 290.311 100.893C290.311 101.569 290.51 102.115 290.909 102.531C291.307 102.947 291.845 103.155 292.521 103.155ZM300.335 104.195C299.711 104.195 299.147 104.061 298.645 103.792C298.151 103.515 297.761 103.129 297.475 102.635C297.197 102.132 297.059 101.552 297.059 100.893C297.059 100.243 297.197 99.6667 297.475 99.164C297.761 98.6613 298.151 98.2713 298.645 97.994C299.147 97.708 299.711 97.565 300.335 97.565C301.461 97.565 302.315 97.9073 302.896 98.592V94.393H304.209V104H302.935V103.09C302.588 103.471 302.207 103.753 301.791 103.935C301.383 104.108 300.898 104.195 300.335 104.195ZM300.634 103.155C301.171 103.155 301.639 103.016 302.038 102.739C302.445 102.453 302.731 102.072 302.896 101.595V100.191C302.748 99.7143 302.467 99.333 302.051 99.047C301.643 98.761 301.171 98.618 300.634 98.618C300.209 98.618 299.823 98.7133 299.477 98.904C299.139 99.0947 298.87 99.3633 298.671 99.71C298.48 100.057 298.385 100.451 298.385 100.893C298.385 101.335 298.48 101.729 298.671 102.076C298.87 102.423 299.139 102.691 299.477 102.882C299.823 103.064 300.209 103.155 300.634 103.155ZM309.333 104.195C308.18 104.195 307.274 103.909 306.616 103.337C305.966 102.756 305.641 101.942 305.641 100.893C305.641 99.8703 305.931 99.06 306.512 98.462C307.101 97.864 307.937 97.565 309.021 97.565C309.74 97.565 310.351 97.7037 310.854 97.981C311.356 98.2497 311.733 98.6267 311.985 99.112C312.245 99.5887 312.375 100.135 312.375 100.75V101.4H306.889C306.932 101.989 307.179 102.431 307.63 102.726C308.089 103.012 308.709 103.155 309.489 103.155C309.887 103.155 310.29 103.12 310.698 103.051C311.105 102.973 311.465 102.873 311.777 102.752V103.805C311.499 103.918 311.131 104.009 310.672 104.078C310.221 104.156 309.775 104.195 309.333 104.195ZM311.14 100.477C311.122 99.8877 310.927 99.4327 310.555 99.112C310.191 98.7827 309.671 98.618 308.995 98.618C308.336 98.618 307.825 98.787 307.461 99.125C307.097 99.463 306.906 99.9137 306.889 100.477H311.14ZM314.161 104C313.988 104 313.84 103.944 313.719 103.831C313.606 103.71 313.55 103.562 313.55 103.389C313.55 103.216 313.606 103.068 313.719 102.947C313.84 102.826 313.988 102.765 314.161 102.765C314.334 102.765 314.482 102.826 314.603 102.947C314.724 103.068 314.785 103.216 314.785 103.389C314.785 103.562 314.724 103.71 314.603 103.831C314.482 103.944 314.334 104 314.161 104Z" fill="#1C1C1C"/>
</svg>
