<svg width="428" height="70" viewBox="0 0 428 70" fill="none" xmlns="http://www.w3.org/2000/svg">
<rect width="77" height="70" rx="8" fill="#F9F9F9"/>
<g clip-path="url(#clip0_188_2019)">
<path d="M44.5712 28.2747L47.7687 25.0339L47.9818 23.6694C42.155 18.2995 32.8927 18.9084 27.64 24.9399C26.1811 26.6151 25.0987 28.7036 24.5215 30.8602L25.6667 30.6967L32.0616 29.6277L32.5553 29.1161C35.3999 25.9498 40.2096 25.5238 43.4941 28.2179L44.5712 28.2747Z" fill="#EA4335"/>
<path d="M52.3238 30.7647C51.5888 28.0217 50.0798 25.5556 47.9819 23.6693L43.4942 28.2177C44.4295 28.9922 45.179 29.9719 45.6863 31.0828C46.1935 32.1937 46.4452 33.4069 46.4224 34.6308V35.4382C48.6281 35.4382 50.4166 37.2506 50.4166 39.4862C50.4166 41.7219 48.6282 43.4888 46.4224 43.4888H38.4231L37.6377 44.353V49.2083L38.4231 49.9701H46.4223C52.1598 50.0154 56.8474 45.3836 56.8921 39.5686C56.9054 37.8332 56.4953 36.1214 55.6983 34.5855C54.9013 33.0495 53.7421 31.737 52.3238 30.7647Z" fill="#4285F4"/>
<path d="M30.4347 49.9702H38.4228V43.4888H30.4347C29.8692 43.4887 29.3105 43.3646 28.7968 43.125L27.6635 43.4774L24.4436 46.7182L24.1631 47.8212C25.9688 49.2031 28.172 49.9801 30.4347 49.9702Z" fill="#34A853"/>
<path d="M30.4347 28.9454C24.6971 28.9802 20.0737 33.7225 20.1079 39.5377C20.1173 41.1402 20.4875 42.7193 21.1902 44.1548C21.893 45.5903 22.9097 46.8443 24.1631 47.8212L28.7967 43.1252C26.7865 42.2045 25.8931 39.8068 26.8013 37.7695C27.7095 35.7321 30.0754 34.8265 32.0855 35.7469C32.9713 36.1526 33.6808 36.8716 34.0809 37.7695L38.7146 33.0731C37.7421 31.7845 36.4886 30.7414 35.0522 30.0253C33.6158 29.3092 32.0354 28.9396 30.4347 28.9454Z" fill="#FBBC05"/>
</g>
<rect x="117" width="77" height="70" rx="8" fill="#F9F9F9"/>
<g clip-path="url(#clip1_188_2019)">
<path d="M147.495 30.8703C147.495 31.4854 147.544 31.984 147.63 32.3497C147.738 32.7611 147.869 33.161 148.02 33.5463C148.081 33.6793 148.105 33.8122 148.105 33.9287C148.105 34.0948 148.032 34.261 147.874 34.4273L147.105 35.1254C146.995 35.2252 146.885 35.275 146.788 35.275C146.666 35.275 146.544 35.1918 146.422 35.0422C146.257 34.8015 146.11 34.54 145.982 34.261C145.86 33.9787 145.738 33.6626 145.604 33.2805C144.652 34.8095 143.456 35.5742 142.017 35.5742C140.992 35.5742 140.174 35.1752 139.576 34.3775C138.978 33.5795 138.673 32.5157 138.673 31.1861C138.673 29.7734 139.039 28.6265 139.784 27.7622C140.528 26.8979 141.516 26.4657 142.773 26.4657C143.188 26.4657 143.615 26.5155 144.067 26.5987C144.518 26.6818 144.982 26.8148 145.47 26.9644V25.751C145.47 24.4877 145.275 23.6069 144.896 23.0916C144.506 22.5763 143.847 22.3269 142.907 22.3269C142.48 22.3269 142.041 22.3936 141.59 22.5432C141.138 22.6926 140.699 22.8755 140.272 23.1083C140.077 23.2246 139.93 23.291 139.845 23.3244C139.759 23.3577 139.698 23.3742 139.649 23.3742C139.479 23.3742 139.393 23.2079 139.393 22.8589V22.0444C139.393 21.7785 139.418 21.5791 139.479 21.4628C139.54 21.3463 139.649 21.2301 139.82 21.1138C140.247 20.8146 140.76 20.5652 141.358 20.3657C141.956 20.1497 142.59 20.0501 143.261 20.0501C144.713 20.0501 145.775 20.4987 146.458 21.3963C147.129 22.2938 147.471 23.6567 147.471 25.4852V30.8703H147.496H147.495ZM142.541 33.3967C142.944 33.3967 143.359 33.2971 143.798 33.0975C144.237 32.8981 144.628 32.5324 144.957 32.0338C145.153 31.7181 145.299 31.3691 145.372 30.9701C145.445 30.5712 145.494 30.0891 145.494 29.524V28.8259C145.124 28.7033 144.749 28.6089 144.372 28.5434C143.991 28.4776 143.608 28.4442 143.225 28.4436C142.407 28.4436 141.809 28.6597 141.407 29.1085C141.004 29.5573 140.809 30.1889 140.809 31.0199C140.809 31.801 140.955 32.3828 141.26 32.7818C141.553 33.1973 141.98 33.3967 142.541 33.3967ZM152.34 35.1918C152.12 35.1918 151.974 35.142 151.876 35.0255C151.778 34.9259 151.693 34.6932 151.62 34.3775L148.752 21.5293C148.679 21.1967 148.642 20.9806 148.642 20.8644C148.642 20.5985 148.74 20.4487 148.935 20.4487H150.131C150.363 20.4487 150.522 20.4987 150.607 20.615C150.705 20.7148 150.778 20.9475 150.851 21.2632L152.901 32.2665L154.804 21.2632C154.865 20.9308 154.939 20.7148 155.036 20.615C155.134 20.5154 155.305 20.4489 155.524 20.4489H156.501C156.732 20.4489 156.891 20.4987 156.989 20.615C157.086 20.7148 157.172 20.9475 157.22 21.2632L159.148 32.3995L161.259 21.2632C161.332 20.9308 161.418 20.7148 161.503 20.615C161.601 20.5154 161.759 20.4489 161.979 20.4489H163.114C163.309 20.4489 163.419 20.5818 163.419 20.8644C163.419 20.9475 163.407 21.0306 163.395 21.1303C163.382 21.2301 163.358 21.363 163.309 21.5459L160.368 34.394C160.295 34.7265 160.21 34.9426 160.112 35.0422C160.015 35.142 159.856 35.2085 159.649 35.2085H158.599C158.367 35.2085 158.209 35.1587 158.111 35.0422C158.013 34.9259 157.928 34.7099 157.879 34.3775L155.988 23.6567L154.109 34.3606C154.048 34.6932 153.975 34.9093 153.877 35.0255C153.779 35.142 153.609 35.1918 153.389 35.1918H152.339H152.34ZM168.019 35.6406C167.385 35.6406 166.75 35.5408 166.14 35.3414C165.53 35.142 165.054 34.9257 164.737 34.6767C164.542 34.5269 164.407 34.3608 164.359 34.2112C164.311 34.0645 164.286 33.9061 164.285 33.7457V32.8981C164.285 32.5491 164.383 32.3828 164.566 32.3828C164.641 32.3832 164.715 32.4001 164.786 32.4328C164.859 32.4661 164.969 32.5324 165.091 32.5989C165.522 32.8571 165.972 33.0521 166.433 33.1806C166.911 33.3128 167.397 33.3796 167.885 33.3801C168.654 33.3801 169.252 33.1973 169.667 32.8316C170.081 32.4659 170.301 31.9342 170.301 31.2526C170.301 30.7873 170.191 30.405 169.972 30.0891C169.752 29.7734 169.337 29.4908 168.739 29.2248L166.97 28.4769C166.079 28.0946 165.42 27.5295 165.018 26.7814C164.615 26.0501 164.408 25.2357 164.408 24.3714C164.408 23.6734 164.517 23.0583 164.737 22.5263C164.957 21.9946 165.249 21.5293 165.616 21.1636C165.982 20.7812 166.396 20.4987 166.885 20.2993C167.373 20.0999 167.885 20.0167 168.422 20.0167C168.69 20.0167 168.971 20.0334 169.24 20.0832C169.52 20.133 169.776 20.1995 170.033 20.2659C170.277 20.3491 170.509 20.4322 170.728 20.532C170.948 20.6316 171.119 20.7314 171.241 20.831C171.412 20.9642 171.533 21.0971 171.607 21.2467C171.68 21.3797 171.717 21.5624 171.717 21.7952V22.5763C171.717 22.9254 171.619 23.1083 171.436 23.1083C171.338 23.1083 171.18 23.0416 170.972 22.9087C170.277 22.4765 169.496 22.2604 168.629 22.2604C167.934 22.2604 167.385 22.4101 167.006 22.7259C166.628 23.0416 166.433 23.5238 166.433 24.2052C166.433 24.6706 166.555 25.0695 166.799 25.3854C167.043 25.701 167.495 26.0169 168.141 26.2995L169.874 27.0475C170.753 27.4299 171.387 27.9616 171.765 28.643C172.144 29.3246 172.327 30.1057 172.327 30.9701C172.327 31.6848 172.217 32.333 172.009 32.8981C171.79 33.4632 171.497 33.9618 171.119 34.3608C170.74 34.7763 170.289 35.0755 169.764 35.2916C169.215 35.5244 168.642 35.6406 168.019 35.6406Z" fill="#252F3E"/>
<path d="M170.326 43.7184C166.311 47.7574 160.478 49.9016 155.464 49.9016C148.435 49.9016 142.102 46.3612 137.319 40.4773C136.941 40.012 137.282 39.3804 137.734 39.7459C142.907 43.8349 149.289 46.3114 155.891 46.3114C160.344 46.3114 165.237 45.0482 169.74 42.4553C170.411 42.0396 170.985 43.0537 170.326 43.7184ZM171.997 41.1255C171.485 40.228 168.605 40.6933 167.3 40.9094C166.909 40.9761 166.848 40.5106 167.202 40.1616C169.496 37.9674 173.266 38.5992 173.706 39.3304C174.145 40.0784 173.583 45.2143 171.436 47.6743C171.107 48.0567 170.789 47.8573 170.936 47.3586C171.424 45.7129 172.51 42.0065 171.997 41.1255Z" fill="#FF9900"/>
</g>
<rect x="234" width="77" height="70" rx="8" fill="#F9F9F9"/>
<path d="M277.51 25.3125C283.044 25.3125 287.53 29.65 287.53 35C287.53 40.35 283.044 44.6875 277.51 44.6875H267.49C263.91 44.6875 260.601 42.8413 258.812 39.8438C257.928 38.3296 257.469 36.6752 257.469 35C257.469 33.3248 257.928 31.6704 258.812 30.1562C260.601 27.1587 263.91 25.3125 267.49 25.3125H277.51Z" stroke="black" stroke-width="2" stroke-linecap="round" stroke-linejoin="round"/>
<rect x="351" width="77" height="70" rx="8" fill="#F9F9F9"/>
<path d="M383.414 21.0477H394.222L383.002 48.0018C382.887 48.2788 382.668 48.5196 382.375 48.6901C382.082 48.8606 381.73 48.9524 381.37 48.9523H372.958C372.685 48.9523 372.416 48.8995 372.173 48.7984C371.93 48.6973 371.72 48.5508 371.561 48.3709C371.401 48.1911 371.297 47.983 371.256 47.7639C371.216 47.5449 371.24 47.3211 371.328 47.1113L381.781 21.998C381.897 21.721 382.116 21.4802 382.409 21.3097C382.702 21.1391 383.053 21.0473 383.414 21.0472V21.0477Z" fill="url(#paint0_linear_188_2019)"/>
<path d="M399.12 39.1266H381.981C381.821 39.1263 381.665 39.165 381.534 39.2376C381.402 39.3102 381.3 39.4134 381.241 39.5336C381.183 39.6538 381.171 39.7855 381.206 39.9115C381.241 40.0376 381.322 40.1521 381.439 40.2401L392.452 48.5749C392.773 48.8175 393.195 48.9523 393.634 48.9523H403.339L399.12 39.1266Z" fill="#0078D4"/>
<path d="M383.414 21.0476C383.049 21.0465 382.694 21.1399 382.4 21.3142C382.105 21.4885 381.887 21.7346 381.777 22.0165L371.341 47.0884C371.248 47.299 371.218 47.5247 371.256 47.7465C371.293 47.9682 371.395 48.1794 371.554 48.3622C371.713 48.5451 371.924 48.6941 372.17 48.7968C372.415 48.8995 372.687 48.9528 372.963 48.9523H381.592C381.913 48.9057 382.213 48.7908 382.462 48.6194C382.711 48.4479 382.899 48.226 383.007 47.9763L385.088 43.0029L392.523 48.6251C392.834 48.834 393.225 48.9496 393.629 48.9523H403.298L399.057 39.1266L386.695 39.1289L394.261 21.0476H383.414Z" fill="url(#paint1_linear_188_2019)"/>
<path d="M397.219 21.9967C397.104 21.72 396.885 21.4796 396.592 21.3093C396.3 21.1391 395.949 21.0475 395.588 21.0476H383.543C383.903 21.0476 384.254 21.1392 384.546 21.3095C384.839 21.4797 385.058 21.7201 385.173 21.9967L395.627 47.111C395.714 47.3209 395.739 47.5447 395.699 47.7638C395.658 47.983 395.554 48.1912 395.395 48.3712C395.235 48.5512 395.025 48.6978 394.782 48.7989C394.539 48.9 394.27 48.9528 393.997 48.9527H406.043C406.316 48.9525 406.585 48.8997 406.828 48.7985C407.071 48.6973 407.281 48.5506 407.44 48.3707C407.599 48.1908 407.703 47.9827 407.744 47.7636C407.784 47.5446 407.76 47.3209 407.673 47.111L397.219 21.9967Z" fill="url(#paint2_linear_188_2019)"/>
<defs>
<linearGradient id="paint0_linear_188_2019" x1="387.353" y1="23.1155" x2="379.705" y2="50.9834" gradientUnits="userSpaceOnUse">
<stop stop-color="#114A8B"/>
<stop offset="1" stop-color="#0669BC"/>
</linearGradient>
<linearGradient id="paint1_linear_188_2019" x1="390.86" y1="35.6453" x2="388.395" y2="36.6729" gradientUnits="userSpaceOnUse">
<stop stop-opacity="0.3"/>
<stop offset="0.071" stop-opacity="0.2"/>
<stop offset="0.321" stop-opacity="0.1"/>
<stop offset="0.623" stop-opacity="0.05"/>
<stop offset="1" stop-opacity="0"/>
</linearGradient>
<linearGradient id="paint2_linear_188_2019" x1="389.432" y1="22.3312" x2="397.89" y2="50.1226" gradientUnits="userSpaceOnUse">
<stop stop-color="#3CCBF4"/>
<stop offset="1" stop-color="#2892DF"/>
</linearGradient>
<clipPath id="clip0_188_2019">
<rect width="37" height="30" fill="white" transform="translate(20 20)"/>
</clipPath>
<clipPath id="clip1_188_2019">
<rect width="37" height="30" fill="white" transform="translate(137 20)"/>
</clipPath>
</defs>
</svg>
